<svg width="370" height="367" viewBox="0 0 370 367" fill="none" xmlns="http://www.w3.org/2000/svg">
<path d="M184.999 0.0546875C236.224 0.0546875 282.29 20.4944 315.826 53.71C349.362 86.9256 369.999 132.552 369.999 183.288C369.999 234.024 349.362 279.65 315.826 312.865C282.29 346.081 236.224 366.521 184.999 366.521C133.774 366.521 87.7085 346.081 54.1729 312.865C20.6372 279.65 9.64385e-05 233.659 0 183.288C0 132.552 20.6371 86.9256 54.1729 53.71C87.7085 20.4945 133.774 0.054789 184.999 0.0546875ZM184.999 26.335C141.145 26.3351 101.713 43.8557 72.9678 72.3262C44.223 100.797 26.5342 139.852 26.5342 183.288C26.5343 226.724 44.2229 265.78 72.9678 294.25C101.713 322.72 141.145 340.24 184.999 340.24C228.853 340.24 268.286 322.721 297.031 294.25C325.776 265.78 343.465 226.724 343.465 183.288C343.465 139.852 325.407 100.797 297.031 72.3262C268.286 43.8557 228.485 26.335 184.999 26.335ZM181.146 311.04V323.814L172.67 321.99L172.302 309.58L181.146 311.04ZM196.256 321.99L187.779 323.814V311.04L196.624 309.58L196.256 321.99ZM166.773 309.215V320.895L159.034 319.435L158.666 307.755L166.773 309.215ZM209.522 319.07L201.783 320.53L201.415 308.484L209.522 307.024V319.07ZM153.875 306.659L153.507 317.975L145.03 316.149V305.199L153.875 306.659ZM223.895 316.149L215.419 317.975L215.05 306.659L223.895 305.199V316.149ZM139.503 303.375L139.134 309.58L138.766 314.689L130.658 309.944L131.396 298.63L139.503 303.375ZM238.268 309.944L230.16 314.689L229.791 309.215L229.423 303.01L237.53 298.265L238.268 309.944ZM125.13 295.709L124.394 301.185L124.024 306.295L115.917 301.55L117.022 290.964L125.13 295.709ZM252.64 301.55L244.532 306.295L243.795 300.819L243.059 295.345L251.166 290.6L252.64 301.55ZM267.013 293.154L259.273 297.899L258.168 292.789L257.062 288.044L265.17 283.299L267.013 293.154ZM111.495 287.314L110.39 292.06L109.652 297.534L101.913 292.789L103.388 282.569L111.495 287.314ZM293.915 223.803L260.011 271.984L221.684 291.694L184.463 295.709L147.242 291.694L108.915 271.984L75.0107 223.803L75.3799 222.708L112.231 266.144L149.821 285.124L184.463 288.044L219.104 284.759L256.693 265.779L293.546 222.708L293.915 223.803ZM91.2256 268.334C93.4366 271.254 95.648 274.174 98.2275 277.094L96.3857 283.664L95.6484 287.314C93.4374 285.124 91.5948 282.934 89.3838 280.744L91.2256 268.334ZM279.542 280.744C277.699 282.934 275.488 285.124 273.277 287.314L272.172 284.029L270.329 277.459C272.909 274.539 275.12 271.619 277.331 268.699L279.542 280.744ZM79.8018 251.179C82.0129 254.464 84.2244 257.748 86.4355 261.398L84.9609 266.874L83.1182 273.079C81.2756 270.524 79.4334 267.969 77.5908 265.414L79.8018 251.179ZM291.335 265.414C289.492 267.969 287.649 270.524 285.807 273.079L283.965 266.874L282.49 261.398C284.701 258.113 286.913 254.829 289.124 251.179L291.335 265.414ZM199.204 236.943L207.68 240.958V250.448L201.046 259.574V248.988L199.204 251.544L190.359 262.858L189.622 263.224L184.463 265.779L179.304 263.224L178.566 262.858L169.722 251.544L167.879 248.988V259.574L161.246 250.448V240.594L169.722 236.578L184.463 229.278L199.204 236.943ZM122.551 113.206L135.817 106.636H168.248L184.094 114.666L200.31 106.636H232.739L246.007 113.206L263.327 90.5762H278.068L280.279 91.6709L298.705 100.796V138.026L290.967 147.882L286.544 142.042L278.805 132.187L289.492 117.951V106.271L274.383 126.347L271.803 122.696L285.807 104.081L279.174 100.796L267.749 116.856L265.17 113.206L275.856 98.9707H267.013L253.745 116.856L279.174 150.072L290.229 164.672L302.022 180.002C308.656 197.522 313.078 212.853 314.921 226.358C313.078 230.008 310.867 233.658 309.024 236.943L307.919 232.563L304.233 219.788L293.915 183.287L267.749 150.437L265.538 151.532L281.385 186.572V220.153L279.542 222.343L274.383 192.048L262.59 175.622L260.379 176.718L266.644 197.888L266.275 236.578L262.59 240.594L258.168 204.458L246.007 184.383L243.795 185.478L248.586 211.758L245.27 258.844L240.847 263.589L237.162 220.518L219.841 170.147H245.27L248.586 166.132L254.851 158.102V141.677L244.164 146.787H225.369L212.103 153.356L209.891 151.896L212.839 148.247L217.262 142.406H205.837L194.413 148.247L188.517 140.217V123.062L198.467 117.951L192.938 115.396L187.411 118.316L184.831 119.411L182.252 118.316L176.724 115.396L171.196 117.951L181.146 123.062V140.217L175.25 148.247L163.825 142.406H152.401L156.823 148.247L159.771 151.896L157.561 153.356L144.294 146.787H125.499L114.812 141.677V158.102L121.076 166.132L124.394 170.147H149.821L132.501 220.518L128.815 263.589L124.394 258.844L120.34 211.393L125.13 185.112L122.919 184.018L110.758 204.093L106.336 240.229L102.65 236.213L102.281 197.522L108.547 176.353L106.336 175.257L94.543 191.683L89.3838 221.979L87.541 219.788V186.207L103.388 151.167L101.176 150.072L75.0107 182.923L63.5869 224.168L61.375 232.198L60.2695 236.578C58.427 233.293 56.5841 229.643 54.373 225.993C56.2157 212.488 60.6381 197.158 67.2715 179.638L79.0645 164.307L90.1201 149.707L115.549 116.491L102.281 98.6055H93.4375L104.124 112.841L101.545 116.491L89.3838 100.796L82.75 104.081L96.7539 122.696L94.1738 126.347L79.0645 106.271V117.951L89.752 132.187L82.0127 142.042L77.5908 147.882L69.8516 138.026V100.796L88.2773 91.6709L90.4893 90.5762H105.229L122.551 113.206ZM202.152 155.547L210.996 159.927V168.322L220.21 201.902L216.156 215.773L219.104 225.993L223.158 212.488L226.843 225.993V250.813L216.156 261.764V237.309L211.365 231.104L206.206 228.548L191.833 221.248V211.028L194.044 208.107L197.729 203.362H201.046L203.994 209.203L213.576 203.728L207.312 171.242L200.31 167.957L184.831 170.877L169.354 167.957L162.352 171.242L156.086 203.728L165.668 209.203L168.616 203.362H171.196L174.881 208.107L177.092 211.028V221.248L162.72 228.548L157.561 231.104L152.77 237.309V261.764L141.346 250.813V225.993L145.03 212.488L149.084 225.993L152.032 215.773L147.979 201.902L157.192 168.322V159.927L166.036 155.547H202.152ZM302.759 247.528C300.916 250.448 299.074 253.733 297.231 256.653L295.389 250.084L293.546 243.879C295.757 240.229 297.969 236.579 300.18 232.563L302.759 247.528ZM68.0088 232.198C70.2199 236.213 72.4314 239.864 74.6426 243.514L72.7998 249.719L71.3252 256.289C69.4826 253.369 67.6405 250.448 65.7979 247.163L68.0088 232.198ZM174.145 185.112V188.032H172.67L170.827 185.478H167.879V182.192H171.933L174.145 185.112ZM201.046 182.192V185.478H198.099L196.256 188.032H194.781V185.112L196.992 182.192H201.046ZM146.505 161.022H138.028L132.869 154.452H141.346L146.505 161.022ZM236.057 154.452L230.896 161.022H222.421L227.212 154.452H236.057ZM164.562 131.456L176.355 137.297L178.198 138.026L177.829 132.552L175.618 131.456L170.09 128.536L164.562 131.456ZM193.676 131.456L191.096 132.552V137.661L192.938 136.932L204.731 131.092L199.204 128.536L193.676 131.456Z" fill="url(#paint0_linear_138_867)"/>
<defs>
<linearGradient id="paint0_linear_138_867" x1="0" y1="183.288" x2="369.999" y2="183.288" gradientUnits="userSpaceOnUse">
<stop stop-color="#FFD170"/>
<stop offset="1" stop-color="#7C622B"/>
</linearGradient>
</defs>
</svg>
