<svg width="56" height="56" viewBox="0 0 56 56" fill="none" xmlns="http://www.w3.org/2000/svg">
<path d="M32.6673 33.5257C32.6673 32.1835 32.6487 31.916 32.5921 31.696C32.5269 31.4423 32.4201 31.2024 32.2754 30.985C32.1496 30.7961 31.9639 30.6039 30.9652 29.7067L25.599 24.8851C24.6901 24.0686 24.1047 23.5462 23.6279 23.1807C23.1746 22.8333 22.9602 22.7431 22.8395 22.7067C22.4006 22.5746 21.9317 22.5744 21.4928 22.7067C21.3727 22.743 21.1594 22.8335 20.7067 23.1807C20.2306 23.5458 19.6476 24.0677 18.7402 24.8828L13.3695 29.7067C12.3697 30.6049 12.1822 30.7969 12.057 30.985C11.912 31.203 11.8052 31.4432 11.7402 31.696C11.6839 31.9151 11.6673 32.1802 11.6673 33.5257V44.3333H32.6673V33.5257ZM37.334 44.3333H44.334V16.7936C44.334 15.4509 44.3332 14.5827 44.2793 13.9225C44.2276 13.2905 44.1396 13.0555 44.0811 12.9404C43.8586 12.5039 43.4995 12.1469 43.0579 11.9219C42.9423 11.863 42.7082 11.7731 42.0758 11.7214C41.4153 11.6674 40.5455 11.6667 39.2002 11.6667H23.8011C22.4558 11.6667 21.5869 11.6696 20.9255 11.7236C20.2913 11.7755 20.0563 11.8632 19.9411 11.9219C19.5022 12.1456 19.1462 12.5015 18.9225 12.9404C18.8638 13.0557 18.7761 13.2906 18.7243 13.9248C18.6703 14.5862 18.6673 15.4552 18.6673 16.8005V18.9264C19.1196 18.6455 19.6022 18.4023 20.1462 18.2383C21.4637 17.8411 22.8709 17.8411 24.1885 18.2383C25.0643 18.5025 25.7899 18.9587 26.4671 19.4779C27.1218 19.9797 27.861 20.6465 28.7161 21.4147L34.0846 26.2363C34.9091 26.977 35.6324 27.6054 36.1605 28.3988C36.5955 29.0524 36.9176 29.7742 37.113 30.5339C37.3504 31.4573 37.334 32.4162 37.334 33.5257V44.3333ZM49.0006 44.3333H51.334C52.6226 44.3333 53.6673 45.378 53.6673 46.6667C53.6673 47.9553 52.6226 49 51.334 49H4.66732C3.37865 49 2.33398 47.9553 2.33398 46.6667C2.33398 45.378 3.37865 44.3333 4.66732 44.3333H7.00065V32.7214C7.00697 31.9412 7.04346 31.227 7.22168 30.5339C7.4172 29.7735 7.7396 29.0517 8.17415 28.3988C8.70267 27.605 9.43077 26.9744 10.2523 26.2363L14.0007 22.8662V16.8005C14.0007 15.5322 13.9982 14.4397 14.0713 13.5443C14.1467 12.622 14.3142 11.7041 14.764 10.8213C15.4351 9.50445 16.5051 8.43442 17.8219 7.76336C18.7048 7.31354 19.6226 7.14602 20.5449 7.07065C21.4404 6.99751 22.5328 7.00001 23.8011 7.00001H39.2002C40.4684 7.00001 41.5615 6.99749 42.4564 7.07065C43.3784 7.14609 44.2948 7.31379 45.1771 7.76336C46.4915 8.43309 47.5649 9.50192 48.2373 10.8213C48.6868 11.7036 48.8547 12.6207 48.93 13.542C49.0031 14.4363 49.0006 15.5279 49.0006 16.7936V44.3333Z" fill="url(#paint0_linear_345_247)"/>
<defs>
<linearGradient id="paint0_linear_345_247" x1="2.33398" y1="28" x2="53.6673" y2="28" gradientUnits="userSpaceOnUse">
<stop stop-color="#1C3B3E"/>
<stop offset="1" stop-color="#19474B"/>
</linearGradient>
</defs>
</svg>
