<svg width="64" height="64" viewBox="0 0 64 64" fill="none" xmlns="http://www.w3.org/2000/svg">
<path d="M25.9376 2.23186C29.4305 -0.743958 34.5703 -0.743948 38.0632 2.23186L41.9696 5.56318C42.4423 5.96598 43.0285 6.20757 43.6447 6.25694L48.7637 6.66633C53.0516 7.00893 56.513 10.2208 57.2298 14.3915L57.336 15.2384L57.7423 20.3541C57.7914 20.9689 58.0351 21.558 58.4392 22.0323L61.7675 25.9386C64.744 29.4314 64.7443 34.5674 61.7675 38.0607L58.4392 41.9671V41.9702C58.0367 42.443 57.7946 43.0299 57.7454 43.6452L57.336 48.7641C56.9706 53.3358 53.341 56.9709 48.7637 57.3361L43.6447 57.7455C43.0258 57.7952 42.44 58.0385 41.9696 58.4393L38.0632 61.7675C34.5703 64.7439 29.4311 64.7444 25.9376 61.7675L22.0311 58.4393C21.5593 58.0372 20.9709 57.7948 20.3529 57.7455V57.7424L15.2371 57.3361H15.2339C10.6576 56.9702 7.02995 53.336 6.66476 48.7641L6.25537 43.6452C6.20612 43.0304 5.96476 42.4436 5.56158 41.9702H5.55846L2.23017 38.0607L2.23329 38.0576C-0.74124 34.5653 -0.746576 29.4317 2.23017 25.9386L5.56158 22.0323C5.96017 21.5646 6.2025 20.9775 6.25224 20.3541L6.66164 15.2384C7.02694 10.6608 10.6677 7.0312 15.2402 6.66633L20.3529 6.25694L20.8092 6.18507C21.2569 6.07719 21.6745 5.86419 22.028 5.56318L25.9376 2.23186ZM33.913 7.10384C32.8119 6.16554 31.1889 6.16554 30.0878 7.10384L26.1814 10.4352C24.6842 11.7109 22.8223 12.4819 20.8623 12.6383L15.7496 13.0446C14.3049 13.1599 13.1581 14.3084 13.0432 15.7478L12.6338 20.8635C12.4973 22.5743 11.8955 24.2155 10.89 25.6042L10.4337 26.1824L7.10228 30.0918L7.09916 30.0887C6.16224 31.1888 6.1642 32.8092 7.10228 33.9106H7.10541L10.4337 37.8201C11.7067 39.3145 12.4802 41.174 12.6369 43.1358L13.0463 48.2547C13.1618 49.6982 14.3042 50.8425 15.7433 50.9579L20.8623 51.3641C22.8228 51.5206 24.6844 52.2917 26.1814 53.5673L30.0847 56.8955H30.0878C31.1886 57.8335 32.8116 57.834 33.913 56.8955L37.8194 53.5673C39.3171 52.2911 41.1769 51.5207 43.1353 51.3641H43.1384L48.2543 50.9579L48.5231 50.9235C49.8346 50.6977 50.8459 49.6082 50.9545 48.2547V48.2516L51.3638 43.1358C51.5205 41.1741 52.293 39.3122 53.5671 37.817L56.8954 33.9106H56.8985C57.836 32.8099 57.8337 31.1897 56.8954 30.0887L53.5671 26.1824C52.4531 24.8748 51.7219 23.2865 51.4514 21.5948L51.3638 20.8635L50.9576 15.7478L50.9232 15.479C50.6971 14.166 49.6067 13.1528 48.2543 13.0446L43.1353 12.6383C41.174 12.4816 39.3149 11.7094 37.8194 10.4352L33.913 7.10384ZM39.3383 23.3385C40.588 22.0888 42.6137 22.0888 43.8635 23.3385C45.1128 24.5883 45.1131 26.6141 43.8635 27.8636L31.0628 40.6639C29.8132 41.9133 27.7873 41.9132 26.5376 40.6639L20.1373 34.2638C18.8876 33.0141 18.8878 30.9884 20.1373 29.7387C21.387 28.489 23.4128 28.489 24.6625 29.7387L28.8002 33.8763L39.3383 23.3385Z" fill="url(#paint0_linear_138_845)"/>
<defs>
<linearGradient id="paint0_linear_138_845" x1="0" y1="32" x2="64" y2="32" gradientUnits="userSpaceOnUse">
<stop stop-color="#7C622B"/>
<stop offset="1" stop-color="#FFD170"/>
</linearGradient>
</defs>
</svg>
