<svg width="373" height="340" viewBox="0 0 373 340" fill="none" xmlns="http://www.w3.org/2000/svg">
<g clip-path="url(#clip0_396_878)">
<path d="M217.74 43.8772C238.979 37.8379 265.581 32.4456 291.11 34.6025C317.497 36.7594 342.598 47.1126 358.688 73.4271C360.404 76.231 362.121 79.4665 363.623 82.4861C374.349 105.781 375.207 134.468 366.626 161.861C357.83 189.469 338.951 215.784 309.989 233.686C305.055 236.706 299.691 239.726 294.114 242.314C277.165 250.079 258.93 256.765 240.48 263.236C194.784 279.628 148.874 296.021 129.995 332.905L126.563 339.591L121.414 335.925C91.3787 315.218 66.7073 289.767 49.1155 261.295C31.9528 233.255 21.6551 202.411 19.5098 169.626C18.4371 151.723 18.8662 132.958 22.5133 114.193C26.1603 95.4276 33.24 76.6624 45.0394 58.9757C60.4858 36.1123 86.0154 17.5628 113.047 7.64094C127.849 2.24864 142.866 -0.555357 156.811 0.0917187C170.113 0.523103 182.77 4.18987 193.283 11.3077C203.58 18.4255 212.161 28.9944 217.525 43.6615L217.74 43.8772ZM284.03 38.7007C259.144 36.5437 232.971 42.3674 213.234 48.1911L209.587 49.2695L209.158 48.1911C203.795 33.0926 195.213 22.3081 184.916 15.1902C174.833 8.28802 162.819 4.83695 150.376 4.40556C138.362 3.97418 125.918 6.1311 114.119 10.4449C90.7351 18.8569 68.2091 35.6809 53.8353 57.0345C42.0359 74.2898 35.1708 92.8393 31.5238 111.389C27.8766 129.938 27.4476 148.703 28.5202 166.606C30.6656 199.176 40.9632 230.02 57.9115 257.843C74.4305 284.806 97.1708 308.963 124.846 328.807C146.728 293.864 193.283 277.256 239.622 260.648C257.213 254.393 274.805 247.922 290.681 240.588C295.401 238.431 299.691 236.059 303.982 233.47C331.228 216.646 349.249 191.411 357.616 164.449C366.197 137.488 365.339 108.801 354.612 85.7216C353.11 82.7018 351.609 79.6822 349.892 76.6624C334.017 50.7794 309.56 40.6419 284.03 38.485V38.7007Z" fill="#1C3B3E"/>
<path d="M119.485 61.9959L114.979 62.8587L121.416 56.1722L125.921 55.3094C131.713 54.231 137.72 50.9956 140.938 47.9759C142.01 47.1131 142.655 46.0347 143.084 45.3876C143.512 44.5248 143.512 43.662 143.084 43.0149C142.869 42.5836 142.225 42.1522 141.153 41.9365C136.647 40.6424 129.996 41.5051 122.702 43.662C114.979 45.819 106.398 49.7014 98.889 54.231C92.668 57.8977 87.3045 62.2116 82.3702 66.7411C77.4359 71.4864 73.1452 76.2315 69.7127 80.5454C63.2767 88.7417 57.6988 96.938 53.1936 105.35C48.9029 113.331 45.4703 121.311 43.1105 129.291L44.3976 129.724C51.0482 131.88 61.1313 132.312 70.3563 129.508C77.4359 127.351 84.5156 122.39 88.5917 113.331C89.0207 112.252 89.4498 111.174 89.8789 110.095L90.7371 107.507L101.463 102.978L100.606 105.566C100.177 106.86 99.7477 107.939 99.1034 109.232C92.8825 123.253 79.7958 131.448 65.8511 135.762C54.0517 139.43 42.0378 139.214 34.3145 136.625C33.671 136.409 32.8128 136.194 32.1692 135.762L31.5256 135.547L31.7402 134.9C34.1 126.488 37.7471 117.86 42.2523 109.448C46.9721 100.605 52.7645 91.9771 59.4151 83.5651C63.2767 78.8199 67.7819 73.4276 73.5743 68.0352C79.5812 62.4273 95.0279 51.8583 95.0279 51.8583C95.0279 51.8583 116.267 40.8581 126.564 37.8384C136.004 35.0343 144.37 34.1716 150.163 35.6814C151.664 36.1128 152.523 36.7599 153.166 37.6227C153.81 38.7012 153.81 40.211 152.952 41.9365C152.094 43.662 150.592 45.6033 148.447 47.5445C141.796 53.7996 129.782 60.7017 118.841 62.643L119.485 61.9959ZM200.364 175.666C200.579 177.823 198.219 179.548 196.288 181.489C195.216 181.705 192.64 181.705 188.994 181.92C187.921 184.078 187.277 186.235 186.848 187.96C186.419 189.254 186.419 190.549 186.634 191.411C187.277 194.43 191.354 192.706 193.285 191.842C195.43 190.98 198.004 189.47 200.364 187.96C201.222 187.313 202.51 186.45 204.225 185.156C205.727 183.862 207.444 182.568 209.16 181.274L209.804 179.763C214.309 169.626 224.821 157.547 237.264 155.822C240.267 155.39 240.696 155.175 239.409 158.842C243.486 157.116 243.7 156.038 242.412 159.489C240.696 164.45 237.478 171.352 233.832 178.039L231.686 182.136C240.481 175.018 247.132 169.195 254.212 161.646L257.43 156.685C259.575 156.038 261.935 155.39 264.295 156.469L263.866 157.332L263.008 158.626C259.361 163.372 255.714 168.548 253.14 174.156C254.426 173.725 255.714 173.293 257.001 173.078C257.859 172.862 258.717 172.862 259.575 172.862C264.295 169.842 271.803 163.155 275.451 160.136C277.167 158.842 278.454 157.332 279.742 156.685C281.243 156.038 282.959 156.254 284.033 157.547C281.457 160.567 278.669 165.312 276.309 170.057C272.448 178.039 269.659 186.45 269.229 188.823C269.015 190.117 269.015 190.98 269.229 191.411C269.873 190.764 270.731 190.117 271.803 189.254C279.313 182.352 289.61 170.705 293.901 165.312C295.617 162.939 296.69 161.215 298.835 159.058C300.336 157.763 304.198 156.901 306.558 156.901C306.344 157.332 305.486 158.626 304.198 160.567C300.766 165.312 296.69 171.568 293.901 177.175C291.541 181.705 290.039 185.588 289.825 188.176C289.825 191.627 291.541 189.902 293.042 188.823C296.904 185.372 302.696 178.47 309.991 167.038C312.995 162.508 312.995 161.861 315.998 158.194C318.143 157.116 320.074 156.685 322.863 156.685C322.863 157.332 321.361 160.136 319.645 163.803C318.358 166.391 316.641 169.411 315.14 172.43C312.995 176.744 310.849 180.627 310.42 181.705C307.845 188.823 308.918 191.195 311.707 191.411C313.852 191.411 317.5 189.685 320.932 187.96C325.652 185.372 331.658 182.136 338.095 179.763C344.96 177.391 350.323 176.097 357.188 178.901L352.683 185.803C348.392 181.489 341.098 182.136 335.52 184.078C331.015 185.588 326.081 188.176 322.434 190.333C316.641 193.568 309.776 196.587 305.056 196.587C300.981 196.372 299.05 193.352 302.267 185.156C299.05 188.607 296.261 190.764 293.901 192.49C290.682 194.647 287.894 195.725 285.748 195.941C284.033 196.156 282.959 195.725 282.316 194.863C281.887 194.215 281.673 193.568 281.673 192.49C281.673 189.902 283.174 186.019 285.319 181.705C282.745 184.293 280.171 186.881 277.811 189.038C274.808 191.627 272.019 193.784 269.443 195.294C265.368 197.451 262.365 198.098 261.292 196.372C260.863 195.725 260.863 194.43 261.292 192.706C261.72 190.333 264.725 181.705 268.586 173.509C269.443 171.999 270.088 170.273 270.946 168.764C268.586 170.489 266.226 172.43 263.651 173.94L264.08 174.371C268.586 178.685 253.997 192.058 249.492 194.863C245.846 197.02 242.841 197.882 241.34 197.02C239.195 195.725 240.267 190.764 241.984 185.803C243.486 181.489 245.416 177.175 246.489 175.234C241.126 179.979 235.118 184.724 227.61 190.549C224.178 196.156 220.959 201.117 218.599 204.137C214.524 209.53 209.16 216.647 203.796 221.177C200.793 223.765 195 226.138 191.568 226.354C186.419 212.549 201.008 201.764 211.519 196.587C214.738 195.078 217.956 193.352 220.745 191.411C222.89 188.823 221.603 190.117 222.676 187.96C219.028 190.549 215.381 192.49 211.734 192.706C209.804 192.921 208.731 192.058 208.087 190.764C207.658 189.685 207.658 188.392 207.873 186.881C206.156 188.176 204.654 189.254 203.367 190.117C199.72 192.49 195.859 194.43 192.211 195.941C189.637 197.02 179.769 201.117 178.482 195.941C177.623 192.274 180.842 185.803 182.343 182.568L179.769 182.784L173.118 195.078L171.831 197.235L164.108 200.039L165.395 197.882L171.617 186.45L173.332 183.215C172.046 183.431 170.758 183.431 169.471 183.646C164.108 189.902 157.672 195.509 151.45 197.882C147.374 199.392 144.585 199.823 142.44 199.392C141.367 199.176 140.509 198.744 139.865 198.313C139.222 197.882 138.793 197.235 138.578 196.372C138.364 195.941 138.364 195.294 138.149 194.863C135.145 196.803 132.142 198.529 129.782 199.176C127.851 199.823 126.135 200.039 125.062 199.823C124.204 199.608 123.561 198.96 123.347 197.882C123.131 196.803 123.561 195.078 124.419 192.706C123.776 193.352 123.131 193.784 122.488 194.215C118.412 197.235 114.979 198.745 112.405 199.176C107.256 199.823 108.757 193.999 109.831 191.195C106.183 193.999 102.537 196.803 99.3188 198.529C96.5291 200.039 94.1692 201.117 92.0238 201.333C90.0934 201.764 88.8063 201.333 88.1626 200.255C87.9481 199.608 87.9481 198.745 88.1626 197.451C89.0207 193.784 93.3114 187.097 95.4568 183.431C96.1002 182.352 97.1734 181.489 95.8857 180.842C95.6713 180.627 95.0279 180.411 94.3837 180.411C93.5259 180.411 92.4536 180.627 90.7371 181.274C85.5882 188.607 80.8684 196.803 79.3667 200.47C77.0068 200.902 74.0034 201.548 70.7853 200.902C71.6435 198.529 75.5051 193.784 77.4359 190.764C84.5156 180.411 89.8789 174.587 96.3147 160.351L96.7436 158.411L104.896 154.959L104.467 156.901C103.823 159.273 101.679 163.803 98.4601 168.979L99.7477 167.9C108.329 161.215 116.91 156.254 122.059 156.901H122.702C122.273 165.312 113.693 171.999 107.256 172.646L106.398 169.195C110.688 167.469 112.834 166.822 114.336 161.861C112.405 162.293 108.543 164.881 104.467 168.117C101.249 170.489 98.0312 173.293 95.2424 176.097C97.3878 175.45 99.1034 175.234 100.606 175.234C101.893 175.234 102.751 175.45 103.394 175.882C104.039 176.313 104.253 176.744 104.467 177.175C104.467 177.606 104.467 178.039 104.253 178.47C104.039 178.901 103.609 179.548 102.965 180.842C100.82 184.078 96.7436 190.549 96.1002 193.784C95.6713 195.509 95.6713 196.587 97.6023 195.725C102.322 193.137 108.973 187.313 112.619 183.431C114.765 178.47 117.554 173.509 120.987 169.411C124.848 164.881 129.353 161.43 135.575 158.411C138.149 157.116 140.509 156.685 142.01 156.901C142.869 156.901 143.512 157.332 143.941 157.763C144.37 158.194 144.585 158.626 144.585 159.273C144.585 160.136 144.37 160.999 143.941 162.293C146.301 160.351 148.661 159.058 150.592 158.626C152.738 157.979 153.81 158.411 153.595 159.489C153.595 160.136 152.952 161.215 151.664 162.724C143.727 171.352 140.295 175.018 134.931 185.588C133.858 187.745 132.571 190.117 131.927 191.842C130.855 194.863 131.713 195.294 134.287 193.784C138.149 191.195 144.8 184.941 147.374 182.784L146.516 187.745C146.301 189.254 146.301 190.764 146.73 192.058C146.945 192.706 147.374 193.137 147.803 193.568C148.232 193.999 148.661 194.215 149.519 194.43C150.378 194.647 151.664 194.43 153.166 193.784C155.741 192.706 159.603 189.038 163.035 184.509C160.246 184.941 157.886 185.588 156.384 186.45C156.599 184.293 157.028 182.568 158.101 180.627C160.032 179.548 163.464 178.901 167.54 178.254C170.972 172.862 173.332 167.254 173.118 163.803C173.118 162.724 172.474 162.508 171.831 162.724C168.398 163.372 164.966 165.96 162.606 168.332L156.17 169.411C161.318 164.018 169.257 159.489 176.765 157.763C178.911 157.332 180.626 157.332 181.056 158.194L181.271 158.626C182.343 162.939 179.125 170.49 174.191 177.823L176.551 177.606L185.99 160.136L187.063 157.979L195 155.175L193.928 157.332L183.202 177.391H185.99C192.64 167.253 201.651 160.999 207.873 158.411C210.876 157.116 213.236 156.685 214.738 156.901C216.239 157.116 216.883 157.763 216.454 159.273C216.025 160.999 214.094 163.372 210.018 166.822L206.8 169.411H201.437L204.654 166.822C207.014 164.881 208.087 163.587 208.302 162.724C208.516 162.293 208.302 162.077 207.873 162.077C207.658 162.077 207.229 162.077 206.8 162.293C203.153 163.803 197.36 168.548 192.211 177.391C197.146 177.175 200.579 176.96 201.008 176.313L200.364 175.666ZM299.693 152.155L305.056 148.92C307.416 148.92 312.136 148.704 316.427 147.841C321.79 146.548 325.437 143.527 323.935 139.214L332.088 134.9L332.732 136.841C333.161 138.566 332.517 140.723 331.015 142.665C328.87 145.469 325.223 148.057 320.289 149.567C314.496 151.508 305.915 151.94 299.693 151.94V152.155ZM172.903 244.687C175.049 243.609 177.194 242.53 178.911 241.883C180.197 241.452 181.271 241.021 182.128 240.805C184.059 240.157 185.346 240.157 185.562 240.805V241.021C185.562 241.236 185.562 241.452 185.346 241.883C182.772 245.766 180.842 250.942 180.842 254.177C180.842 255.041 180.842 255.688 181.271 256.119C182.557 254.824 184.917 252.02 188.779 247.06C190.28 245.335 192.64 241.883 195.43 238.217C196.502 236.707 211.091 216.863 214.952 219.236C215.596 219.667 213.879 223.333 208.087 232.608C206.585 234.981 202.51 244.471 200.793 250.296L200.579 251.374L204.011 247.923C208.945 242.745 214.309 236.275 218.814 230.883C219.672 229.804 220.53 228.511 221.388 227.216L223.104 224.628C223.748 223.55 224.392 222.902 224.821 222.471C228.039 219.667 230.399 218.588 231.901 219.667C232.115 219.883 232.115 220.098 231.901 220.529C231.686 220.961 231.257 221.608 230.827 222.471C227.824 227 224.821 233.039 222.461 238.864C220.316 244.256 219.028 249.432 218.599 253.315C231.042 247.06 240.911 241.667 252.711 236.922C270.946 229.589 291.327 223.981 307.202 227.647C315.998 229.589 334.233 239.726 338.309 247.923L330.157 252.236C326.295 244.256 308.489 234.55 300.122 232.608C286.607 229.589 269.659 233.687 254.212 239.726C242.841 244.04 232.115 249.432 221.388 254.824C216.668 257.197 213.236 258.707 211.519 258.707C210.876 258.707 210.447 258.491 210.447 258.06C210.662 253.962 212.164 248.354 214.309 242.53L210.447 246.628C205.942 251.589 201.651 255.472 198.862 257.413C196.502 258.923 194.571 259.786 193.07 259.57C191.997 259.57 191.568 258.707 191.783 257.413C191.783 256.55 192.211 255.256 192.64 253.746C193.285 251.589 194.142 248.785 195.216 246.197C188.35 254.824 183.202 259.138 179.125 260.864C176.122 262.159 174.191 262.159 173.332 261.08C172.689 260.433 172.474 259.354 172.689 258.06C172.903 255.041 174.405 250.511 176.551 246.628C173.548 247.923 169.471 249.863 166.682 251.589C161.533 256.334 157.672 258.923 154.454 260.002C150.592 261.295 148.876 260.002 148.876 256.981C148.876 254.824 149.734 251.589 151.021 248.138C143.512 254.393 136.647 259.57 134.287 261.511C131.284 267.12 128.066 272.727 124.633 278.119C115.623 293.002 106.398 311.552 86.2318 312.414C86.0173 304.003 90.0934 294.943 95.0279 288.257C103.609 276.393 114.336 270.139 127.208 262.59L128.71 259.57C125.062 261.511 122.273 262.374 120.557 261.511C119.485 261.08 119.056 259.786 119.056 257.629C118.841 246.628 123.131 239.079 130.211 230.883C136.862 222.902 144.585 219.883 151.021 219.451H152.094V220.098C152.094 222.471 150.163 227.863 147.159 234.765C144.37 241.452 141.153 247.923 137.72 254.393C142.44 250.727 148.447 245.766 154.024 241.021C159.603 230.236 168.612 219.02 174.834 218.588C176.122 218.588 176.98 218.588 177.623 219.02C178.267 219.451 178.482 219.883 178.482 220.745C180.198 219.883 181.914 219.451 183.416 219.667C184.274 219.667 185.132 220.098 185.562 220.961C185.99 221.608 186.205 222.471 185.99 223.765C185.776 227.647 182.557 234.981 173.118 245.335L172.903 245.55V244.687ZM180.197 256.55C179.983 256.766 179.769 256.766 179.983 256.55H180.197ZM128.066 256.119C128.066 256.119 129.139 255.472 131.499 253.746C132.786 251.158 134.073 248.785 135.145 246.413C140.08 236.275 143.298 227.863 143.941 224.197C141.796 224.628 139.436 225.922 137.291 228.511C133.858 232.608 130.641 239.079 128.281 248.354C127.208 252.884 126.779 255.472 127.851 255.903L128.066 256.119ZM116.91 280.061C119.056 276.393 121.201 272.727 123.347 269.06L118.627 272.727C108.973 280.708 98.2456 293.002 95.0279 305.513C96.9589 304.434 99.1034 302.708 101.463 300.335C107.042 294.728 112.405 287.179 116.91 280.061ZM161.318 239.079L159.388 243.609C157.886 247.275 157.028 250.511 157.028 252.453C157.028 253.962 157.028 254.824 157.243 254.824C157.886 254.609 160.675 252.02 166.253 245.766C174.62 236.491 177.623 230.236 177.838 226.569C177.838 225.922 177.838 225.275 177.623 224.843L175.049 225.49C170.972 230.236 165.824 234.765 161.104 238.864L161.318 239.079ZM219.887 185.588C223.319 182.568 226.537 178.254 228.682 175.018C229.97 173.078 231.472 170.489 232.758 167.685L226.966 168.979L229.112 166.607C229.97 165.528 230.827 164.45 231.257 163.372C231.686 162.508 231.901 161.646 232.115 160.999C226.537 162.293 220.959 170.057 218.17 176.528C216.883 179.332 213.45 191.411 219.887 185.588ZM211.091 205.862C212.164 204.353 215.167 200.47 216.668 198.098C215.596 198.745 214.309 199.392 213.236 200.039C206.156 203.921 198.433 211.039 197.79 219.667C201.865 218.372 205.942 212.98 211.305 205.862H211.091ZM250.78 179.548L249.921 181.92C248.634 185.803 247.561 189.685 248.634 191.195L249.921 189.902C256.572 182.999 257.43 179.763 256.357 178.47C256.143 178.254 255.928 178.039 255.5 178.039C253.997 178.685 252.495 179.117 251.209 179.332H250.78V179.548ZM117.339 191.195C117.125 193.352 118.197 193.568 119.699 192.058C122.059 189.902 125.707 185.803 129.996 181.058C131.07 179.117 132.142 177.175 133.215 175.45L128.924 176.528L131.07 174.156C131.499 173.725 139.436 165.312 137.72 162.508C136.004 159.704 126.35 170.489 124.848 173.078C121.416 178.901 117.554 187.529 117.339 191.195ZM1.49085 151.293L9.6431 147.841L9.21411 149.783C7.06874 158.411 7.92687 167.038 18.0099 169.411C21.4425 170.273 25.3042 170.273 29.8094 169.842C33.4564 169.411 42.4668 167.038 52.979 163.803C58.986 156.685 68.211 148.272 78.5086 142.88C87.7335 138.135 97.3878 135.978 106.183 138.998L106.827 139.214L106.613 139.861C104.896 145.684 92.4536 152.371 77.4359 158.626C74.4325 159.92 70.9999 161.215 67.7819 162.293L68.64 162.508C69.2836 162.724 69.7127 163.155 70.1418 163.587C70.3563 164.018 70.5709 164.45 70.5709 165.096C70.5709 166.391 70.1418 168.332 69.2836 170.705C68.4255 173.078 66.9237 175.882 65.422 178.901C63.4912 182.352 61.5604 185.372 59.4151 187.96C57.0552 190.764 54.0517 193.352 50.6191 195.725C48.2593 197.451 41.1797 201.548 37.7471 200.47C37.1035 200.255 36.6744 199.823 36.6744 199.176C36.4599 198.529 36.4599 197.666 36.6744 196.372C37.1035 190.98 38.8198 185.803 41.1797 181.058C43.325 176.744 46.114 172.43 48.9029 168.764C37.5326 172.214 27.8786 174.803 24.0169 175.234C19.0827 175.882 14.3629 175.666 10.7158 174.803C-1.29809 171.783 -1.08355 162.077 1.27632 151.724L1.49085 151.293ZM60.7022 160.999C66.9237 158.842 73.1452 156.685 78.9376 154.312C88.5917 150.429 96.5291 146.331 98.2456 143.527C87.519 140.292 67.5673 153.018 60.7022 160.999ZM53.8372 170.057C52.1209 172.43 50.6191 175.018 49.332 177.606C47.1866 182.136 45.4703 186.881 45.0413 192.058C44.8267 195.725 45.0413 195.509 47.4011 193.999C51.0482 191.627 54.4807 185.372 56.6261 181.705C58.1279 179.117 59.4151 176.313 60.2732 173.94C63.0621 166.607 61.5604 164.881 55.1244 169.195L53.8372 170.057ZM274.808 95.86L282.316 93.4873L280.814 95.86C280.385 96.5068 273.734 106.213 269.229 115.057L270.731 114.193C274.163 112.684 276.739 112.252 278.454 112.252L279.098 112.467C284.033 110.958 290.683 108.154 295.402 103.84L296.047 102.546C297.762 99.5262 299.05 97.1536 299.908 96.2912C300.551 95.4278 301.624 94.5654 302.696 93.9185C306.344 91.7614 308.275 91.33 308.06 93.0552C308.06 93.2708 307.845 93.9185 307.631 94.5654C306.344 97.3692 304.627 100.173 302.267 102.33C300.551 105.997 298.835 109.664 296.904 113.115L299.908 111.605C302.267 107.939 305.486 103.84 308.704 100.605C313.638 95.6434 319.001 91.977 323.721 92.624C328.226 93.0552 325.866 99.7418 325.009 102.33C323.078 107.722 319.645 113.978 315.569 119.37C311.707 124.763 306.773 129.508 301.624 132.527C299.693 133.605 297.977 134.469 296.261 134.684C294.973 134.9 294.116 134.9 293.257 134.469L293.042 134.252C291.97 133.605 291.97 131.233 292.399 128.645C292.828 126.272 293.901 123.253 294.759 120.664C295.402 118.723 296.261 116.997 296.69 116.135C295.831 116.566 295.188 116.997 294.33 117.429L293.687 118.723C292.185 121.311 287.465 130.586 287.894 132.959C286.393 133.821 281.457 134.037 279.098 133.174C283.603 123.468 286.393 119.585 291.97 109.664C291.97 109.664 282.745 113.978 280.385 114.84C279.956 117.213 278.24 119.801 276.953 121.742C275.665 123.468 272.448 126.703 269.229 129.291C267.084 130.802 264.939 132.096 262.794 132.959C260.219 134.037 258.288 134.252 257.215 133.39L256.786 132.959C255.928 131.664 256.786 127.782 257.43 126.056C260.219 116.997 269.873 102.33 272.448 98.4482C273.305 97.3692 273.949 96.2912 274.808 95.2122V95.86ZM267.084 119.585C266.44 120.88 266.226 121.742 265.797 122.821C265.368 123.899 264.295 128.429 264.939 129.291C266.869 127.782 268.8 125.841 269.659 124.763C270.517 123.468 273.091 119.801 272.448 118.076C271.589 117.86 267.942 118.723 267.084 119.585ZM303.126 117.86C302.267 120.233 301.41 123.037 300.766 125.41C300.337 127.567 300.122 129.291 300.766 129.724C303.126 127.998 305.701 124.978 308.275 121.527C311.921 116.566 315.14 110.527 317.07 105.566C317.929 103.409 318.358 101.899 318.358 100.821C318.787 96.5068 317.07 97.8004 315.355 99.5262C311.064 104.056 305.271 111.821 302.911 117.86H303.126ZM233.832 112.036C235.977 110.958 238.766 109.448 241.769 107.722L242.412 106.644C249.921 94.781 263.437 83.5651 272.662 78.3885C275.665 76.6629 278.24 75.5845 280.385 74.9374C282.959 74.2903 284.676 74.2903 285.319 75.1531C285.534 75.3688 285.748 75.8001 285.534 76.4472C285.105 81.4082 277.811 88.0946 268.586 94.781C264.725 97.5848 260.434 100.389 256.143 102.978H256.572C257.859 102.761 258.932 102.761 259.789 103.193C260.648 103.409 261.292 103.84 261.72 104.703C262.149 105.566 262.149 106.86 261.72 108.586C260.434 112.684 256.572 118.507 252.495 123.253C247.776 128.645 241.769 133.39 236.406 134.684C234.904 135.116 233.832 135.116 232.973 134.9C231.901 134.684 231.257 133.821 231.042 132.743C230.827 131.664 231.042 130.37 231.472 128.429C232.544 124.763 234.904 119.37 238.551 113.115C235.547 114.624 232.973 115.919 231.042 116.997C227.824 122.39 224.178 127.351 220.959 129.939C217.312 132.959 213.665 134.9 210.447 135.762C208.945 135.978 207.873 135.978 207.014 135.547C206.371 135.116 206.156 134.469 205.942 133.605C205.727 132.096 206.156 129.508 207.444 126.056C208.731 122.606 210.233 119.585 211.519 116.781C213.022 113.762 214.738 110.958 216.239 108.801C218.385 105.566 220.959 102.978 223.319 101.036C227.824 97.1536 232.544 94.781 234.475 94.1342C238.122 92.8396 238.766 93.4873 238.337 97.8004C237.907 101.899 235.977 107.507 233.187 112.9L233.832 112.036ZM251.423 102.33C255.928 99.5262 260.648 96.7224 264.725 93.7029C271.803 88.7417 277.382 83.5651 277.596 80.114C277.596 79.8983 277.596 79.6827 277.596 79.6827C277.596 79.467 277.382 79.467 277.167 79.6827C276.739 79.8983 275.88 80.3297 274.593 80.9768C267.942 84.8592 258.074 93.0552 251.423 102.546V102.33ZM246.06 110.958C242.841 116.566 240.696 121.311 239.838 124.546C239.409 126.056 239.195 127.351 239.409 128.213C239.409 128.86 239.838 129.508 240.267 129.508H240.481C241.126 129.291 243.271 127.351 245.631 124.546C249.278 120.449 252.495 115.272 253.783 111.605C254.212 110.311 254.212 109.448 253.783 108.801C252.711 106.86 250.135 107.291 247.347 109.232L246.06 111.174V110.958ZM230.613 99.095L229.326 100.173C227.61 101.468 225.893 103.409 224.178 105.782C222.676 107.939 221.173 110.311 219.672 113.331C218.385 115.919 217.098 118.938 215.81 122.39C214.524 125.625 214.309 127.782 214.309 129.076C214.309 129.724 214.524 130.155 214.952 130.37C215.167 130.37 214.952 130.586 215.167 130.586C215.381 130.586 215.167 130.37 215.81 129.939C218.599 127.567 222.461 121.742 225.679 115.488C228.682 109.448 230.827 103.409 230.613 99.7419V99.5262V99.095ZM105.111 125.625L106.827 123.253L114.122 121.096L112.405 123.468C110.688 125.841 109.616 127.998 109.616 129.508C109.616 130.155 109.616 130.37 110.045 130.586C110.045 130.586 109.616 130.802 109.831 130.802C110.26 130.802 111.976 129.076 116.052 125.194L120.128 121.096C127.851 113.546 138.149 103.193 146.301 96.938C148.232 95.4278 156.384 88.9574 152.523 95.86C151.235 98.2326 148.876 101.683 146.301 105.566C139.865 115.272 131.499 127.782 133.001 129.939L134.502 129.076C137.505 127.135 145.015 121.096 152.309 114.624C155.526 111.821 158.744 108.801 161.318 106.213L162.82 102.978C164.966 98.8794 167.54 95.8599 169.257 94.5654C172.26 92.4083 174.62 91.5457 176.122 91.977C176.765 92.1927 176.98 92.624 176.765 93.4873C176.551 94.5654 175.478 96.5068 173.118 99.3106C172.046 100.821 170.543 102.33 168.828 104.056C167.54 106.86 166.038 110.095 164.751 113.115C165.824 112.467 166.897 112.036 167.969 111.389C173.332 101.468 179.125 96.0756 183.416 93.9185C186.205 92.4084 188.35 91.977 189.852 92.1927C190.925 92.4084 191.568 92.8396 191.997 93.7029C192.426 94.781 192.211 96.5068 191.139 98.6638L190.71 99.5262L182.557 102.761L183.416 101.252C184.274 99.7418 184.274 98.6638 184.059 97.8004C183.845 97.5848 183.845 97.3692 183.631 97.1536C179.125 100.821 170.758 118.507 169.9 124.978C169.686 126.056 169.686 127.135 169.9 127.998C169.9 128.213 170.115 128.645 170.115 128.645C172.046 127.135 175.049 123.684 177.838 119.585C181.271 114.624 183.845 109.232 184.059 105.35V103.409L189.423 101.036C192.211 99.7419 199.506 96.7224 208.087 94.1342C205.942 88.3103 201.008 86.8005 196.073 85.9377C194.357 85.7221 192.856 85.5064 191.139 85.2907C184.059 84.4278 175.049 83.1337 171.617 76.4472C171.402 76.0158 171.188 75.3688 171.402 74.9374C171.402 74.0746 172.046 72.9962 172.903 71.9177C174.191 70.4079 176.122 69.1137 178.482 67.8195C182.557 65.6626 188.779 64.3685 196.931 65.2313C198.433 65.447 200.793 65.8783 203.796 66.5254C207.229 67.1725 211.519 68.0352 216.454 68.898C228.039 70.6236 247.347 71.702 265.154 69.3294C276.738 67.8195 287.465 65.0156 293.471 60.2703C295.831 58.5448 297.977 56.3879 299.479 54.0153C302.696 48.8387 303.126 45.1719 300.551 40.4267L309.776 41.0737V42.7993C309.776 45.819 308.918 48.623 307.202 51.4269C305.056 54.8781 301.839 58.1134 298.191 60.7017C288.323 68.2509 274.163 72.3491 259.789 74.2903C241.34 76.6629 221.388 75.8001 209.374 73.8589C204.225 72.9962 199.935 72.1334 196.502 71.4864C193.713 70.8393 191.354 70.4079 190.066 70.4079C184.488 69.7608 181.271 70.1922 179.554 70.8393C179.554 71.055 179.34 71.2707 179.34 71.4864C179.34 71.9177 179.34 72.1334 179.554 72.3491C182.772 78.6042 191.139 79.6827 197.79 80.5454C199.506 80.7611 201.008 80.9768 202.724 81.1925C208.302 82.0552 214.094 83.5651 216.239 90.6829C217.098 93.2708 216.668 97.1536 215.596 101.252C214.309 106.213 211.734 111.605 209.16 116.135C207.444 119.154 205.727 121.958 203.796 124.331C201.436 127.135 198.648 129.724 195 132.096C193.713 132.743 191.997 133.821 190.066 134.252C188.136 134.9 185.776 134.9 185.346 132.312C185.132 131.448 185.132 130.155 185.346 128.645C185.346 127.998 185.562 127.135 185.776 126.488C187.277 119.801 190.28 113.762 193.928 108.586C196.288 105.35 198.862 102.33 201.651 99.9575C197.79 101.252 194.571 102.546 191.997 103.625C191.139 107.722 188.565 112.684 185.346 117.429C180.626 124.115 173.977 130.586 168.613 132.959C166.468 133.821 164.966 134.252 163.678 134.252C162.392 134.037 161.748 133.39 161.533 132.312C161.318 131.448 161.318 130.155 161.533 128.86C162.177 124.763 164.323 119.154 165.18 117.213L165.609 116.135C164.751 116.781 163.893 117.429 163.035 118.076L162.606 118.507C160.889 122.174 158.101 127.782 156.814 134.037C156.17 134.037 150.378 133.821 150.592 132.527C151.879 125.194 154.883 121.311 157.672 114.84C149.949 121.742 141.796 128.213 138.364 130.586C130.641 135.547 126.779 136.409 125.491 134.469C123.561 131.664 132.142 118.507 139.007 108.37C134.931 112.252 130.641 116.35 127.208 120.017L123.131 124.115C116.052 131.017 110.688 134.469 106.827 135.547C104.896 135.978 103.609 135.978 102.965 135.331C102.537 134.9 102.322 134.252 102.322 133.39C102.537 131.448 103.823 128.429 105.969 125.41L105.111 125.625ZM207.873 98.2326C206.585 99.095 204.011 102.114 200.579 106.644C197.36 111.174 194.357 116.997 193.07 123.253C192.856 123.899 192.856 124.546 192.64 125.194C192.426 126.488 192.426 127.567 192.64 128.429C192.64 128.86 192.856 129.076 193.07 129.291C193.928 128.429 195 127.567 195.859 126.488C197.575 124.546 199.077 121.958 200.579 119.154C203.153 114.624 205.298 109.448 206.585 104.918C207.229 102.546 207.658 100.173 207.658 98.2326H207.873Z" fill="#1C3B3E"/>
</g>
<defs>
<clipPath id="clip0_396_878">
<rect width="373" height="340" fill="white"/>
</clipPath>
</defs>
</svg>
