<svg width="176" height="160" viewBox="0 0 176 160" fill="none" xmlns="http://www.w3.org/2000/svg">
<path d="M102.895 20.673C112.932 17.8275 125.503 15.2869 137.568 16.3031C150.038 17.3194 161.899 22.1973 169.503 34.5955C170.314 35.9166 171.125 37.441 171.835 38.8637C176.904 49.8392 177.309 63.3552 173.254 76.2615C169.097 89.2694 160.176 101.668 146.489 110.102C144.158 111.525 141.623 112.948 138.987 114.167C130.978 117.826 122.361 120.976 113.642 124.025C92.0476 131.748 70.3521 139.472 61.4306 156.85L59.8085 160L57.3753 158.272C43.182 148.516 31.5232 136.525 23.2099 123.11C15.0994 109.899 10.2331 95.3669 9.21932 79.92C8.71242 71.4852 8.91518 62.6438 10.6387 53.8025C12.3621 44.9612 15.7077 36.1199 21.2837 27.7867C28.5831 17.0145 40.6474 8.27479 53.4215 3.60007C60.4168 1.05946 67.5134 -0.261659 74.1032 0.0432138C80.3888 0.246463 86.3703 1.97408 91.338 5.32768C96.2043 8.68129 100.26 13.6609 102.794 20.5713L102.895 20.673ZM134.222 18.234C122.462 17.2177 110.093 19.9616 100.766 22.7055L99.0429 23.2136L98.8402 22.7055C96.3056 15.5917 92.2504 10.5105 87.3841 7.15692C82.6192 3.90494 76.9419 2.27895 71.0618 2.0757C65.3844 1.87245 59.5043 2.8887 53.9284 4.92118C42.8778 8.88454 32.2328 16.8112 25.4403 26.8721C19.8643 35.002 16.6201 43.7417 14.8967 52.4814C13.1732 61.2211 12.9704 70.0624 13.4773 78.4972C14.4911 93.8425 19.3574 108.375 27.3665 121.484C35.1729 134.187 45.9193 145.569 58.9974 154.919C69.3383 138.456 91.338 130.631 113.236 122.805C121.55 119.858 129.863 116.81 137.365 113.354C139.595 112.338 141.623 111.22 143.651 110.001C156.526 102.074 165.042 90.1841 168.996 77.481C173.051 64.778 172.646 51.2619 167.577 40.3881C166.867 38.9654 166.157 37.5426 165.346 36.1199C157.844 23.9249 146.287 19.1486 134.222 18.1324V18.234Z" fill="#D7B56D"/>
<path d="M56.4641 29.2094L54.3351 29.6159L57.3765 26.4655L59.5055 26.059C62.2428 25.5509 65.0815 24.0265 66.6022 22.6038C67.1091 22.1973 67.4133 21.6892 67.616 21.3843C67.8188 20.9778 67.8188 20.5713 67.616 20.2664C67.5146 20.0632 67.2105 19.8599 66.7036 19.7583C64.5746 19.1486 61.4318 19.5551 57.9848 20.5713C54.3351 21.5876 50.2799 23.4168 46.7315 25.5509C43.7915 27.2785 41.2569 29.311 38.9252 31.4451C36.5934 33.6809 34.5658 35.9166 32.9437 37.9491C29.9023 41.8108 27.2664 45.6725 25.1374 49.6359C23.1097 53.396 21.4876 57.1561 20.3724 60.9162L20.9807 61.1194C24.1235 62.1357 28.8885 62.3389 33.2478 61.0178C36.5934 60.0016 39.939 57.6642 41.8652 53.396C42.068 52.8879 42.2708 52.3797 42.4735 51.8716L42.879 50.6521L47.9481 48.518L47.5426 49.7375C47.3398 50.3473 47.137 50.8554 46.8329 51.4651C43.8929 58.0707 37.7086 61.9324 31.1188 63.9649C25.5429 65.6925 19.8655 65.5909 16.2158 64.3714C15.9117 64.2698 15.5062 64.1682 15.202 63.9649L14.8979 63.8633L14.9993 63.5584C16.1144 59.5951 17.8379 55.5301 19.9669 51.5667C22.1973 47.4001 24.9346 43.3352 28.0774 39.3718C29.9023 37.1361 32.0313 34.5955 34.7686 32.0549C37.6072 29.4126 40.9528 26.7704 44.9067 24.433C49.6716 21.5876 54.9434 19.2502 59.8097 17.8275C64.2704 16.5063 68.2243 16.0998 70.9616 16.8112C71.6713 17.0145 72.0768 17.3193 72.3809 17.7258C72.6851 18.234 72.6851 18.9453 72.2795 19.7583C71.874 20.5713 71.1644 21.4859 70.1506 22.4006C67.0077 25.3477 61.3304 28.5996 56.16 29.5143L56.4641 29.2094ZM94.6848 82.7654C94.7861 83.7817 93.671 84.5947 92.7585 85.5093C92.2516 85.6109 91.035 85.6109 89.3116 85.7125C88.8047 86.7288 88.5005 87.745 88.2978 88.558C88.095 89.1678 88.095 89.7775 88.1964 90.184C88.5005 91.6068 90.4268 90.7938 91.3392 90.3873C92.353 89.9808 93.5696 89.2694 94.6848 88.558C95.0903 88.2532 95.6986 87.8467 96.5096 87.2369C97.2193 86.6272 98.0303 86.0174 98.8414 85.4077L99.1455 84.6963C101.275 79.92 106.242 74.229 112.122 73.416C113.542 73.2127 113.744 73.1111 113.136 74.8387C115.062 74.0257 115.164 73.5176 114.555 75.1436C113.744 77.481 112.224 80.733 110.5 83.8833L109.486 85.8142C113.643 82.4606 116.786 79.7167 120.131 76.1599L121.652 73.8225C122.666 73.5176 123.781 73.2127 124.896 73.7209L124.694 74.1274L124.288 74.7371C122.565 76.9728 120.841 79.4118 119.624 82.0541C120.233 81.8508 120.841 81.6476 121.449 81.5459C121.855 81.4443 122.26 81.4443 122.666 81.4443C124.896 80.0216 128.445 76.8712 130.168 75.4485C130.979 74.8387 131.587 74.1274 132.196 73.8225C132.905 73.5176 133.716 73.6192 134.223 74.229C133.007 75.6517 131.689 77.8875 130.574 80.1232C128.749 83.8833 127.431 87.8467 127.228 88.9645C127.127 89.5743 127.127 89.9808 127.228 90.184C127.532 89.8791 127.938 89.5743 128.445 89.1678C131.993 85.9158 136.859 80.4281 138.887 77.8875C139.698 76.7696 140.205 75.9566 141.219 74.9404C141.928 74.3306 143.753 73.9241 144.868 73.9241C144.767 74.1274 144.361 74.7371 143.753 75.6517C142.131 77.8875 140.205 80.8346 138.887 83.4768C137.772 85.6109 137.062 87.4402 136.961 88.6597C136.961 90.2856 137.772 89.4726 138.481 88.9645C140.306 87.3385 143.044 84.0866 146.49 78.7005C147.91 76.5664 147.91 76.2615 149.329 74.5339C150.343 74.0257 151.255 73.8225 152.573 73.8225C152.573 74.1274 151.864 75.4485 151.053 77.1761C150.444 78.3956 149.633 79.8183 148.924 81.2411C147.91 83.2736 146.896 85.1028 146.693 85.6109C145.477 88.9645 145.984 90.0824 147.302 90.184C148.315 90.184 150.039 89.371 151.661 88.558C153.891 87.3385 156.73 85.8142 159.771 84.6963C163.016 83.5784 165.55 82.9687 168.794 84.2898L166.665 87.5418C164.638 85.5093 161.191 85.8142 158.555 86.7288C156.426 87.4402 154.094 88.6597 152.371 89.6759C149.633 91.2003 146.389 92.623 144.159 92.623C142.232 92.5214 141.32 91.0986 142.841 87.2369C141.32 88.8629 140.002 89.8791 138.887 90.6921C137.366 91.7084 136.048 92.2165 135.034 92.3181C134.223 92.4198 133.716 92.2165 133.412 91.81C133.21 91.5051 133.108 91.2003 133.108 90.6921C133.108 89.4726 133.818 87.6434 134.832 85.6109C133.615 86.8304 132.399 88.0499 131.283 89.0661C129.864 90.2856 128.546 91.3019 127.329 92.0133C125.403 93.0295 123.984 93.3344 123.477 92.5214C123.274 92.2165 123.274 91.6068 123.477 90.7938C123.68 89.6759 125.099 85.6109 126.924 81.7492C127.329 81.0378 127.634 80.2248 128.039 79.5135C126.924 80.3265 125.809 81.2411 124.592 81.9524L124.795 82.1557C126.924 84.1882 120.03 90.4889 117.901 91.81C116.178 92.8262 114.758 93.2328 114.049 92.8263C113.035 92.2165 113.542 89.8791 114.353 87.5418C115.062 85.5093 115.975 83.4768 116.482 82.5622C113.947 84.7979 111.108 87.0337 107.56 89.7775C105.938 92.4198 104.417 94.7571 103.302 96.1799C101.376 98.7205 98.8414 102.074 96.3069 104.208C94.8875 105.428 92.1502 106.546 90.5281 106.647C88.095 100.143 94.9889 95.062 99.9566 92.623C101.477 91.9116 102.998 91.0986 104.316 90.184C105.33 88.9645 104.721 89.5743 105.228 88.558C103.505 89.7775 101.781 90.6921 100.058 90.7938C99.1455 90.8954 98.6386 90.4889 98.3345 89.8791C98.1317 89.371 98.1317 88.7613 98.2331 88.0499C97.4221 88.6597 96.7124 89.1678 96.1041 89.5743C94.3806 90.6921 92.5558 91.6068 90.8323 92.3181C89.6157 92.8263 84.9522 94.7571 84.3439 92.3181C83.9384 90.5905 85.4591 87.5418 86.1688 86.0174L84.9522 86.119L81.8094 91.9116L81.2011 92.9279L77.5514 94.249L78.1597 93.2327L81.0997 87.8467L81.9108 86.3223C81.3025 86.4239 80.6942 86.4239 80.0859 86.5255C77.5514 89.4727 74.5099 92.1149 71.5699 93.2327C69.6436 93.9441 68.3257 94.1474 67.3119 93.9441C66.805 93.8425 66.3994 93.6392 66.0953 93.436C65.7912 93.2327 65.5884 92.9279 65.487 92.5214C65.3856 92.3181 65.3856 92.0133 65.2843 91.81C63.8649 92.7246 62.4456 93.5376 61.3304 93.8425C60.418 94.1474 59.6069 94.249 59.1 94.1474C58.6945 94.0457 58.3903 93.7409 58.289 93.2327C58.1876 92.7246 58.3903 91.9116 58.7959 90.7938C58.4917 91.0986 58.1876 91.3019 57.8834 91.5051C55.9572 92.9279 54.3351 93.6393 53.1185 93.8425C50.6854 94.1474 51.395 91.4035 51.902 90.0824C50.1785 91.4035 48.455 92.7246 46.9343 93.5376C45.6163 94.249 44.5011 94.7571 43.4873 94.8587C42.5749 95.062 41.9666 94.8587 41.6625 94.3506C41.5611 94.0457 41.5611 93.6392 41.6625 93.0295C42.068 91.3019 44.0956 88.1515 45.1094 86.4239C45.4136 85.9158 45.9205 85.5093 45.3122 85.2044C45.2108 85.1028 44.9067 85.0012 44.6025 85.0012C44.197 85.0012 43.6901 85.1028 42.879 85.4077C40.4459 88.8629 38.2155 92.7246 37.5058 94.4522C36.3907 94.6555 34.9713 94.9604 33.4506 94.6555C33.8561 93.5376 35.681 91.3019 36.5934 89.8791C39.939 85.0012 42.4735 82.2573 45.5149 75.5501L45.7177 74.6355L49.5702 73.0095L49.3674 73.9241C49.0633 75.042 48.0495 77.1761 46.5288 79.6151L47.137 79.107C51.1923 75.9566 55.2475 73.6192 57.6807 73.9241H57.9848C57.7821 77.8875 53.7268 81.0378 50.6854 81.3427L50.2799 79.7167C52.3075 78.9037 53.3213 78.5988 54.031 76.2615C53.1185 76.4647 51.2937 77.6842 49.3674 79.2086C47.8467 80.3265 46.326 81.6476 45.008 82.9687C46.0219 82.6638 46.8329 82.5622 47.5426 82.5622C48.1509 82.5622 48.5564 82.6638 48.8605 82.8671C49.1647 83.0703 49.266 83.2736 49.3674 83.4768C49.3674 83.6801 49.3674 83.8833 49.266 84.0866C49.1647 84.2898 48.9619 84.5947 48.6578 85.2044C47.644 86.7288 45.7177 89.7775 45.4136 91.3019C45.2108 92.1149 45.2108 92.623 46.1232 92.2165C48.3536 90.997 51.4964 88.2532 53.2199 86.4239C54.2337 84.0866 55.5517 81.7492 57.1738 79.8183C58.9986 77.6842 61.1276 76.0582 64.0677 74.6355C65.2843 74.0257 66.3994 73.8225 67.1091 73.9241C67.5146 73.9241 67.8188 74.1274 68.0215 74.3306C68.2243 74.5339 68.3257 74.7371 68.3257 75.042C68.3257 75.4485 68.2243 75.855 68.0215 76.4647C69.1367 75.5501 70.2519 74.9404 71.1644 74.7371C72.1782 74.4322 72.6851 74.6355 72.5837 75.1436C72.5837 75.4485 72.2796 75.9566 71.6713 76.668C67.9202 80.733 66.2981 82.4606 63.7635 87.4402C63.2566 88.4564 62.6484 89.5743 62.3442 90.3873C61.8373 91.81 62.2428 92.0133 63.4594 91.3019C65.2843 90.0824 68.4271 87.1353 69.6436 86.119L69.2381 88.4564C69.1367 89.1678 69.1367 89.8791 69.3395 90.4889C69.4409 90.7938 69.6436 90.997 69.8464 91.2003C70.0492 91.4035 70.2519 91.5051 70.6575 91.6068C71.063 91.7084 71.6713 91.6068 72.3809 91.3019C73.5975 90.7938 75.4224 89.0661 77.0445 86.932C75.7265 87.1353 74.6113 87.4402 73.9016 87.8467C74.003 86.8304 74.2058 86.0174 74.7127 85.1028C75.6251 84.5947 77.2472 84.2898 79.1735 83.9849C80.7956 81.4443 81.9108 78.8021 81.8094 77.1761C81.8094 76.668 81.5052 76.5664 81.2011 76.668C79.579 76.9728 77.9569 78.1923 76.8417 79.3102L73.8003 79.8183C76.2334 77.2777 79.9845 75.1436 83.5328 74.3306C84.5467 74.1274 85.3577 74.1274 85.5605 74.5339L85.6618 74.7371C86.1688 76.7696 84.648 80.3265 82.3163 83.7817L83.4315 83.6801L87.8922 75.4485L88.3991 74.4322L92.1502 73.1111L91.6433 74.1274L86.5743 83.5784H87.8922C91.035 78.8021 95.2931 75.855 98.2331 74.6355C99.6524 74.0257 100.768 73.8225 101.477 73.9241C102.187 74.0257 102.491 74.3306 102.288 75.042C102.086 75.855 101.173 76.9728 99.2469 78.5988L97.7262 79.8183H95.1917L96.7124 78.5988C97.8276 77.6842 98.3345 77.0745 98.4359 76.668C98.5372 76.4647 98.4359 76.3631 98.2331 76.3631C98.1317 76.3631 97.929 76.3631 97.7262 76.4647C96.0027 77.1761 93.2654 79.4118 90.8323 83.5784C93.164 83.4768 94.7861 83.3752 94.9889 83.0703L94.6848 82.7654ZM141.624 71.6884L144.159 70.164C145.274 70.164 147.504 70.0624 149.532 69.6559C152.066 69.0461 153.79 67.6234 153.08 65.5909L156.933 63.5584L157.237 64.473C157.44 65.286 157.135 66.3023 156.426 67.2169C155.412 68.538 153.689 69.7575 151.357 70.4689C148.619 71.3835 144.564 71.5868 141.624 71.5868V71.6884ZM81.708 115.285C82.7218 114.777 83.7356 114.269 84.5467 113.964C85.1549 113.761 85.6619 113.558 86.0674 113.456C86.9798 113.151 87.5881 113.151 87.6895 113.456V113.558C87.6895 113.659 87.6895 113.761 87.5881 113.964C86.3715 115.793 85.4591 118.232 85.4591 119.757C85.4591 120.163 85.4591 120.468 85.6618 120.671C86.2701 120.062 87.3853 118.74 89.2102 116.403C89.9199 115.59 91.035 113.964 92.353 112.237C92.8599 111.525 99.7538 102.176 101.579 103.294C101.883 103.497 101.072 105.224 98.3345 109.594C97.6248 110.712 95.6986 115.184 94.8875 117.927L94.7861 118.436L96.4082 116.81C98.74 114.371 101.275 111.322 103.404 108.781C103.809 108.273 104.215 107.663 104.62 107.054L105.431 105.834C105.735 105.326 106.039 105.021 106.242 104.818C107.763 103.497 108.878 102.989 109.588 103.497C109.689 103.598 109.689 103.7 109.588 103.903C109.486 104.107 109.284 104.411 109.081 104.818C107.662 106.952 106.242 109.798 105.127 112.541C104.113 115.082 103.505 117.521 103.302 119.35C109.182 116.403 113.846 113.862 119.422 111.627C128.039 108.172 137.67 105.529 145.173 107.257C149.329 108.172 157.947 112.948 159.873 116.81L156.02 118.842C154.195 115.082 145.781 110.509 141.827 109.594C135.44 108.172 127.431 110.102 120.131 112.948C114.758 114.98 109.689 117.521 104.62 120.062C102.39 121.179 100.768 121.891 99.9566 121.891C99.6524 121.891 99.4497 121.789 99.4497 121.586C99.5511 119.655 100.261 117.013 101.275 114.269L99.4497 116.2C97.3207 118.537 95.2931 120.366 93.9751 121.281C92.8599 121.992 91.9475 122.399 91.2378 122.297C90.7309 122.297 90.5281 121.891 90.6295 121.281C90.6295 120.875 90.8323 120.265 91.035 119.553C91.3392 118.537 91.7447 117.216 92.2516 115.997C89.0074 120.062 86.5743 122.094 84.648 122.907C83.2287 123.517 82.3163 123.517 81.9108 123.009C81.6066 122.704 81.5052 122.196 81.6066 121.586C81.708 120.163 82.4177 118.029 83.4315 116.2C82.0121 116.81 80.0859 117.724 78.7679 118.537C76.3348 120.773 74.5099 121.992 72.9892 122.501C71.1644 123.11 70.3533 122.501 70.3533 121.078C70.3533 120.062 70.7588 118.537 71.3671 116.911C67.8188 119.858 64.5746 122.297 63.4594 123.212C62.0401 125.854 60.5193 128.496 58.8973 131.037C54.6392 138.049 50.2799 146.789 40.75 147.195C40.6487 143.232 42.5749 138.964 44.9067 135.813C48.9619 130.224 54.031 127.277 60.1138 123.72L60.8235 122.297C59.1 123.212 57.7821 123.618 56.971 123.212C56.4641 123.009 56.2613 122.399 56.2613 121.383C56.16 116.2 58.1876 112.643 61.5332 108.781C64.676 105.021 68.3257 103.598 71.3671 103.395H71.874V103.7C71.874 104.818 70.9616 107.359 69.5423 110.611C68.2243 113.761 66.7036 116.81 65.0815 119.858C67.3119 118.131 70.1505 115.793 72.7865 113.558C75.4224 108.476 79.6804 103.192 82.6204 102.989C83.2287 102.989 83.6342 102.989 83.9384 103.192C84.2425 103.395 84.3439 103.598 84.3439 104.005C85.1549 103.598 85.966 103.395 86.6757 103.497C87.0812 103.497 87.4867 103.7 87.6895 104.107C87.8922 104.411 87.9936 104.818 87.8922 105.428C87.7909 107.257 86.2701 110.712 81.8094 115.59L81.708 115.692V115.285ZM85.1549 120.875C85.0536 120.976 84.9522 120.976 85.0536 120.875H85.1549ZM60.5193 120.671C60.5193 120.671 61.0263 120.366 62.1414 119.553C62.7497 118.334 63.358 117.216 63.8649 116.098C66.1967 111.322 67.7174 107.359 68.0215 105.631C67.0077 105.834 65.8925 106.444 64.8787 107.663C63.2566 109.594 61.7359 112.643 60.6207 117.013C60.1138 119.147 59.9111 120.366 60.418 120.57L60.5193 120.671ZM55.2475 131.952C56.2613 130.224 57.2752 128.496 58.289 126.769L56.0586 128.496C51.4964 132.257 46.4274 138.049 44.9067 143.943C45.8191 143.435 46.8329 142.622 47.9481 141.504C50.584 138.862 53.1185 135.305 55.2475 131.952ZM76.2334 112.643L75.321 114.777C74.6113 116.505 74.2058 118.029 74.2058 118.944C74.2058 119.655 74.2058 120.062 74.3072 120.062C74.6113 119.96 75.9293 118.74 78.5652 115.793C82.519 111.424 83.9384 108.476 84.0398 106.749C84.0398 106.444 84.0398 106.139 83.9384 105.936L82.7218 106.241C80.7956 108.476 78.3624 110.611 76.132 112.541L76.2334 112.643ZM103.91 87.4402C105.533 86.0174 107.053 83.9849 108.067 82.4606C108.675 81.5459 109.385 80.3265 109.993 79.0053L107.256 79.6151L108.27 78.4972C108.675 77.9891 109.081 77.481 109.284 76.9728C109.486 76.5663 109.588 76.1599 109.689 75.855C107.053 76.4647 104.417 80.1232 103.099 83.1719C102.491 84.4931 100.869 90.184 103.91 87.4402ZM99.7538 96.9929C100.261 96.2815 101.68 94.4522 102.39 93.3344C101.883 93.6392 101.275 93.9441 100.768 94.249C97.422 96.0782 93.7723 99.4318 93.4682 103.497C95.3944 102.887 97.3207 100.346 99.8552 96.9929H99.7538ZM118.509 84.5947L118.104 85.7125C117.495 87.5418 116.989 89.371 117.495 90.0824L118.104 89.4726C121.247 86.2207 121.652 84.6963 121.145 84.0866C121.044 83.9849 120.942 83.8833 120.74 83.8833C120.03 84.1882 119.32 84.3914 118.712 84.493H118.509V84.5947ZM55.4503 90.0824C55.3489 91.0986 55.8558 91.2003 56.5655 90.4889C57.6807 89.4726 59.4042 87.5418 61.4318 85.306C61.9387 84.3914 62.4456 83.4768 62.9525 82.6638L60.9249 83.1719L61.9387 82.0541C62.1414 81.8508 65.8925 77.8875 65.0815 76.5663C64.2704 75.2452 59.7083 80.3265 58.9986 81.5459C57.3765 84.2898 55.5517 88.3548 55.4503 90.0824ZM0.704524 71.2819L4.557 69.6559L4.35424 70.5705C3.34043 74.6355 3.74596 78.7005 8.51087 79.8183C10.133 80.2248 11.9578 80.2248 14.0868 80.0216C15.8103 79.8183 20.0683 78.7005 25.036 77.1761C27.8746 73.8225 32.234 69.8591 37.1003 67.3185C41.4597 65.0828 46.0219 64.0665 50.1785 65.4893L50.4826 65.5909L50.3812 65.8958C49.5702 68.6396 43.6901 71.79 36.5934 74.7371C35.1741 75.3469 33.552 75.9566 32.0313 76.4647L32.4368 76.5663C32.7409 76.668 32.9437 76.8712 33.1465 77.0745C33.2478 77.2777 33.3492 77.481 33.3492 77.7858C33.3492 78.3956 33.1465 79.3102 32.7409 80.4281C32.3354 81.5459 31.6257 82.8671 30.9161 84.2898C30.0036 85.9158 29.0912 87.3385 28.0774 88.558C26.9622 89.8791 25.5429 91.0986 23.9208 92.2165C22.8056 93.0295 19.46 94.9604 17.8379 94.4522C17.5338 94.3506 17.331 94.1474 17.331 93.8425C17.2296 93.5376 17.2296 93.1311 17.331 92.5214C17.5338 89.9808 18.3448 87.5418 19.46 85.306C20.4738 83.2736 21.7918 81.2411 23.1097 79.5135C17.7365 81.1394 13.1744 82.3589 11.3495 82.5622C9.01777 82.8671 6.78739 82.7654 5.06391 82.3589C-0.61343 80.9362 -0.512049 76.3631 0.603143 71.4851L0.704524 71.2819ZM28.6857 75.855C31.6257 74.8387 34.5658 73.8225 37.3031 72.7046C41.8652 70.8754 45.6163 68.9445 46.4274 67.6234C41.3583 66.099 31.9299 72.0949 28.6857 75.855ZM25.4415 80.1232C24.6305 81.2411 23.9208 82.4606 23.3125 83.6801C22.2987 85.8142 21.4876 88.0499 21.2849 90.4889C21.1835 92.2165 21.2849 92.1149 22.4001 91.4035C24.1235 90.2856 25.7456 87.3385 26.7595 85.6109C27.4691 84.3914 28.0774 83.0703 28.4829 81.9524C29.8009 78.4972 29.0912 77.6842 26.0498 79.7167L25.4415 80.1232ZM129.864 45.1644L133.412 44.0465L132.703 45.1644C132.5 45.4693 129.357 50.0424 127.228 54.209L127.938 53.8025C129.56 53.0911 130.776 52.8879 131.587 52.8879L131.892 52.9895C134.223 52.2781 137.366 50.957 139.597 48.9245L139.901 48.3148C140.712 46.892 141.32 45.7742 141.726 45.3677C142.03 44.9612 142.537 44.5547 143.044 44.2498C144.767 43.2336 145.679 43.0303 145.578 43.8433C145.578 43.9449 145.477 44.2498 145.375 44.5547C144.767 45.8758 143.956 47.1969 142.841 48.2131C142.03 49.9408 141.219 51.6684 140.306 53.2944L141.726 52.583C142.841 50.8554 144.361 48.9245 145.882 47.4001C148.214 45.0628 150.748 43.3352 152.979 43.64C155.108 43.8433 153.993 46.9937 153.587 48.2131C152.675 50.7538 151.053 53.7009 149.126 56.2415C147.302 58.7821 144.97 61.0178 142.537 62.4406C141.624 62.9487 140.813 63.3552 140.002 63.4568C139.394 63.5584 138.988 63.5584 138.583 63.3552L138.481 63.2536C137.974 62.9487 137.974 61.8308 138.177 60.6113C138.38 59.4935 138.887 58.0707 139.292 56.8512C139.597 55.9366 140.002 55.1236 140.205 54.7171C139.799 54.9204 139.495 55.1236 139.09 55.3269L138.786 55.9366C138.076 57.1561 135.845 61.5259 136.048 62.6438C135.339 63.0503 133.007 63.1519 131.892 62.7454C134.021 58.1723 135.339 56.3431 137.974 51.6684C137.974 51.6684 133.615 53.7009 132.5 54.1074C132.297 55.2252 131.486 56.4447 130.878 57.3593C130.27 58.1723 128.749 59.6967 127.228 60.9162C126.214 61.6276 125.2 62.2373 124.187 62.6438C122.97 63.1519 122.058 63.2536 121.551 62.8471L121.348 62.6438C120.942 62.0341 121.348 60.2048 121.652 59.3918C122.97 55.1236 127.532 48.2131 128.749 46.3839C129.154 45.8758 129.458 45.3677 129.864 44.8595V45.1644ZM126.214 56.3431C125.91 56.9528 125.809 57.3593 125.606 57.8675C125.403 58.3756 124.896 60.5097 125.2 60.9162C126.113 60.2048 127.025 59.2902 127.431 58.7821C127.836 58.1723 129.053 56.4447 128.749 55.6317C128.343 55.5301 126.62 55.9366 126.214 56.3431ZM143.246 55.5301C142.841 56.648 142.435 57.9691 142.131 59.087C141.928 60.1032 141.827 60.9162 142.131 61.1194C143.246 60.3064 144.463 58.8837 145.679 57.2577C147.403 54.9204 148.924 52.0749 149.836 49.7375C150.242 48.7213 150.444 48.0099 150.444 47.5018C150.647 45.4693 149.836 46.079 149.025 46.892C146.997 49.0261 144.26 52.6846 143.145 55.5301H143.246ZM110.5 52.7862C111.514 52.2781 112.832 51.5667 114.251 50.7538L114.555 50.2456C118.104 44.6563 124.491 39.3718 128.85 36.9328C130.27 36.1198 131.486 35.6117 132.5 35.3068C133.716 35.002 134.528 35.002 134.832 35.4085C134.933 35.5101 135.034 35.7133 134.933 36.0182C134.73 38.3556 131.283 41.5059 126.924 44.6563C125.099 45.9774 123.071 47.2985 121.044 48.518H121.247C121.855 48.4164 122.362 48.4164 122.767 48.6196C123.173 48.7213 123.477 48.9245 123.68 49.331C123.883 49.7375 123.883 50.3473 123.68 51.1603C123.071 53.0911 121.247 55.835 119.32 58.0707C117.09 60.6113 114.251 62.8471 111.717 63.4568C111.007 63.6601 110.5 63.6601 110.095 63.5584C109.588 63.4568 109.284 63.0503 109.182 62.5422C109.081 62.0341 109.182 61.4243 109.385 60.5097C109.892 58.7821 111.007 56.2415 112.731 53.2944C111.311 54.0057 110.095 54.6155 109.182 55.1236C107.662 57.6642 105.938 60.0016 104.417 61.2211C102.694 62.6438 100.97 63.5584 99.4497 63.9649C98.74 64.0665 98.2331 64.0665 97.8276 63.8633C97.5234 63.6601 97.4221 63.3552 97.3207 62.9487C97.2193 62.2373 97.4221 61.0178 98.0303 59.3918C98.6386 57.7658 99.3483 56.3431 99.9566 55.022C100.666 53.5992 101.477 52.2781 102.187 51.2619C103.201 49.7375 104.417 48.518 105.533 47.6034C107.662 45.7742 109.892 44.6563 110.804 44.3514C112.528 43.7417 112.832 44.0465 112.629 46.079C112.426 48.0099 111.514 50.6521 110.196 53.1927L110.5 52.7862ZM118.813 48.2131C120.942 46.892 123.173 45.5709 125.099 44.1482C128.445 41.8108 131.081 39.3718 131.182 37.7458C131.182 37.6442 131.182 37.5426 131.182 37.5426C131.182 37.441 131.081 37.441 130.979 37.5426C130.776 37.6442 130.371 37.8475 129.763 38.1523C126.62 39.9816 121.956 43.8433 118.813 48.3148V48.2131ZM116.279 52.2781C114.758 54.9204 113.744 57.1561 113.339 58.6805C113.136 59.3918 113.035 60.0016 113.136 60.4081C113.136 60.7129 113.339 61.0178 113.542 61.0178H113.643C113.947 60.9162 114.961 60.0016 116.076 58.6805C117.8 56.7496 119.32 54.3106 119.929 52.583C120.131 51.9732 120.131 51.5667 119.929 51.2619C119.422 50.3473 118.205 50.5505 116.887 51.4651L116.279 52.3797V52.2781ZM108.979 46.6888L108.371 47.1969C107.56 47.8066 106.749 48.7213 105.938 49.8391C105.228 50.8554 104.519 51.9732 103.809 53.396C103.201 54.6155 102.592 56.0382 101.984 57.6642C101.376 59.1886 101.275 60.2048 101.275 60.8146C101.275 61.1194 101.376 61.3227 101.579 61.4243C101.68 61.4243 101.579 61.5259 101.68 61.5259C101.781 61.5259 101.68 61.4243 101.984 61.2211C103.302 60.1032 105.127 57.3593 106.648 54.4122C108.067 51.5667 109.081 48.7213 108.979 46.9937V46.892V46.6888ZM49.6716 59.1886L50.4826 58.0707L53.9296 57.0545L53.1185 58.1723C52.3075 59.2902 51.8006 60.3064 51.8006 61.0178C51.8006 61.3227 51.8006 61.4243 52.0033 61.5259C52.0033 61.5259 51.8006 61.6276 51.902 61.6276C52.1047 61.6276 52.9158 60.8146 54.842 58.9853L56.7682 57.0545C60.418 53.4976 65.2843 48.6196 69.1367 45.6725C70.0492 44.9612 73.9016 41.9124 72.0768 45.1644C71.4685 46.2823 70.3533 47.9083 69.1367 49.7375C66.0953 54.3106 62.1414 60.2048 62.8511 61.2211L63.5608 60.8146C64.9801 59.8999 68.5285 57.0545 71.9754 54.0057C73.4961 52.6846 75.0168 51.2619 76.2334 50.0424L76.9431 48.518C77.9569 46.5872 79.1735 45.1644 79.9845 44.5547C81.4038 43.5384 82.519 43.1319 83.2287 43.3352C83.5328 43.4368 83.6342 43.64 83.5328 44.0465C83.4315 44.5547 82.9246 45.4693 81.8094 46.7904C81.3025 47.5018 80.5928 48.2131 79.7817 49.0261C79.1735 50.3473 78.4638 51.8716 77.8555 53.2944C78.3624 52.9895 78.8693 52.7862 79.3762 52.4814C81.9108 47.8066 84.648 45.266 86.6757 44.2498C87.9936 43.5384 89.0074 43.3352 89.7171 43.4368C90.224 43.5384 90.5281 43.7417 90.7309 44.1482C90.9337 44.6563 90.8323 45.4693 90.3254 46.4855L90.1226 46.892L86.2701 48.4164L86.6757 47.705C87.0812 46.9937 87.0812 46.4855 86.9798 46.079C86.8784 45.9774 86.8784 45.8758 86.777 45.7742C84.648 47.5018 80.6942 55.835 80.2887 58.8837C80.1873 59.3918 80.1873 59.8999 80.2887 60.3064C80.2887 60.4081 80.39 60.6113 80.39 60.6113C81.3025 59.8999 82.7218 58.274 84.0398 56.3431C85.6619 54.0057 86.8784 51.4651 86.9798 49.6359V48.7213L89.5143 47.6034C90.8323 46.9937 94.2792 45.5709 98.3345 44.3514C97.3207 41.6076 94.9889 40.8962 92.6571 40.4897C91.8461 40.3881 91.1364 40.2864 90.3254 40.1848C86.9798 39.7783 82.7218 39.1686 81.0997 36.0182C80.9983 35.815 80.8969 35.5101 80.9983 35.3068C80.9983 34.9004 81.3025 34.3922 81.708 33.8841C82.3163 33.1727 83.2287 32.563 84.3439 31.9532C86.2701 30.937 89.2102 30.3273 93.0627 30.7338C93.7723 30.8354 94.8875 31.0386 96.3069 31.3435C97.929 31.6484 99.9566 32.0549 102.288 32.4614C107.763 33.2744 116.887 33.7825 125.302 32.6646C130.776 31.9532 135.845 30.6321 138.684 28.3964C139.799 27.5834 140.813 26.5672 141.523 25.4493C143.044 23.0103 143.246 21.2827 142.03 19.0469L146.389 19.3518V20.1648C146.389 21.5876 145.984 22.9087 145.173 24.2298C144.159 25.8558 142.638 27.3801 140.915 28.5996C136.251 32.1565 129.56 34.0874 122.767 35.002C114.049 36.1198 104.62 35.7133 98.9428 34.7987C96.5096 34.3922 94.482 33.9857 92.8599 33.6809C91.5419 33.376 90.4268 33.1727 89.8185 33.1727C87.1826 32.8679 85.6618 33.0711 84.8508 33.376C84.8508 33.4776 84.7494 33.5792 84.7494 33.6809C84.7494 33.8841 84.7494 33.9857 84.8508 34.0874C86.3715 37.0345 90.3254 37.5426 93.4682 37.9491C94.2792 38.0507 94.9889 38.1523 95.8 38.254C98.4359 38.6605 101.173 39.3718 102.187 42.7254C102.592 43.9449 102.39 45.7742 101.883 47.705C101.275 50.0424 100.058 52.583 98.8414 54.7171C98.0303 56.1398 97.2193 57.461 96.3069 58.5788C95.1917 59.8999 93.8737 61.1194 92.1502 62.2373C91.542 62.5422 90.7309 63.0503 89.8185 63.2536C88.906 63.5584 87.7909 63.5584 87.5881 62.3389C87.4867 61.9324 87.4867 61.3227 87.5881 60.6113C87.5881 60.3064 87.6895 59.8999 87.7909 59.5951C88.5005 56.4447 89.9199 53.5992 91.6433 51.1603C92.7585 49.6359 93.9751 48.2131 95.2931 47.0953C93.4682 47.705 91.9475 48.3148 90.7309 48.8229C90.3254 50.7538 89.1088 53.0911 87.5881 55.3269C85.3577 58.4772 82.2149 61.5259 79.6804 62.6438C78.6666 63.0503 77.9569 63.2536 77.3486 63.2536C76.7403 63.1519 76.4362 62.8471 76.3348 62.3389C76.2334 61.9324 76.2334 61.3227 76.3348 60.7129C76.6389 58.7821 77.6527 56.1398 78.0583 55.2252L78.261 54.7171C77.8555 55.022 77.45 55.3269 77.0445 55.6317L76.8417 55.835C76.0306 57.5626 74.7127 60.2048 74.1044 63.1519C73.8003 63.1519 71.063 63.0503 71.1644 62.4406C71.7726 58.9853 73.192 57.1561 74.5099 54.1074C70.8602 57.3593 67.0077 60.4081 65.3856 61.5259C61.7359 63.8633 59.9111 64.2698 59.3028 63.3552C58.3903 62.0341 62.4456 55.835 65.6898 51.0586C63.7635 52.8879 61.7359 54.8187 60.1138 56.5463L58.1876 58.4772C54.842 61.7292 52.3075 63.3552 50.4826 63.8633C49.5702 64.0665 48.9619 64.0665 48.6578 63.7617C48.455 63.5584 48.3536 63.2536 48.3536 62.8471C48.455 61.9324 49.0633 60.5097 50.0771 59.087L49.6716 59.1886ZM98.2331 46.2823C97.6248 46.6888 96.4082 48.1115 94.7861 50.2456C93.2654 52.3797 91.8461 55.1236 91.2378 58.0707C91.1364 58.3756 91.1364 58.6805 91.035 58.9853C90.9337 59.5951 90.9337 60.1032 91.035 60.5097C91.035 60.7129 91.1364 60.8146 91.2378 60.9162C91.6433 60.5097 92.1502 60.1032 92.5558 59.5951C93.3668 58.6805 94.0765 57.461 94.7861 56.1398C96.0027 54.0057 97.0165 51.5667 97.6248 49.4326C97.929 48.3148 98.1317 47.1969 98.1317 46.2823H98.2331Z" fill="#D7B56D"/>
</svg>
