<svg width="38" height="38" viewBox="0 0 38 38" fill="none" xmlns="http://www.w3.org/2000/svg">
<path d="M31.4239 8.85822C31.4239 7.5953 30.4003 6.57556 29.1421 6.57556C27.8838 6.57556 26.8594 7.5953 26.8594 8.85822C26.8594 10.1165 27.8838 11.1362 29.1421 11.1362C30.4003 11.1362 31.4239 10.1165 31.4239 8.85822Z" fill="white"/>
<path d="M34.4637 26.6767C34.3792 28.5293 34.0693 29.5359 33.8121 30.2045C33.4665 31.0909 33.0543 31.7247 32.3858 32.3895C31.7247 33.0543 31.0909 33.4656 30.2045 33.8074C29.5359 34.0684 28.5255 34.3792 26.673 34.4675C24.6701 34.5558 24.0766 34.5746 18.9976 34.5746C13.9234 34.5746 13.3252 34.5558 11.3223 34.4675C9.46974 34.3792 8.46408 34.0684 7.79547 33.8074C6.90439 33.4656 6.27529 33.0543 5.61049 32.3895C4.94096 31.7247 4.52877 31.0909 4.18792 30.2045C3.93059 29.5359 3.61607 28.5293 3.53621 26.6767C3.4386 24.6738 3.42072 24.071 3.42072 19.0024C3.42072 13.9234 3.4386 13.3252 3.53621 11.3223C3.61607 9.46973 3.93059 8.46408 4.18792 7.78983C4.52877 6.90439 4.94096 6.27431 5.61049 5.6095C6.27529 4.94568 6.90439 4.53342 7.79547 4.18792C8.46408 3.92594 9.46974 3.61981 11.3223 3.53157C13.3252 3.44325 13.9234 3.42072 18.9976 3.42072C24.0766 3.42072 24.6701 3.44325 26.673 3.53157C28.5255 3.61981 29.5359 3.92594 30.2045 4.18792C31.0909 4.53342 31.7247 4.94568 32.3858 5.6095C33.0543 6.27431 33.4665 6.90439 33.8121 7.78983C34.0693 8.46408 34.3792 9.46973 34.4637 11.3223C34.5567 13.3252 34.5792 13.9234 34.5792 19.0024C34.5792 24.071 34.5567 24.6738 34.4637 26.6767ZM37.8845 11.1665C37.7915 9.14198 37.4722 7.75885 36.9981 6.55417C36.5155 5.30435 35.8685 4.24517 34.8093 3.18599C33.7548 2.13153 32.6956 1.48454 31.4458 0.996292C30.2364 0.526775 28.8579 0.203739 26.8325 0.115498C24.8071 0.0178185 24.1602 -3.8147e-06 18.9976 -3.8147e-06C13.8398 -3.8147e-06 13.1881 0.0178185 11.1627 0.115498C9.14198 0.203739 7.76448 0.526775 6.54945 0.996292C5.30435 1.48454 4.24517 2.13153 3.19071 3.18599C2.13153 4.24517 1.48454 5.30435 0.997207 6.55417C0.527689 7.75885 0.208456 9.14198 0.110777 11.1665C0.0225357 13.1919 0 13.8398 0 19.0024C0 24.1602 0.0225357 24.8071 0.110777 26.8325C0.208456 28.8533 0.527689 30.2354 0.997207 31.4458C1.48454 32.6909 2.13153 33.7548 3.19071 34.8093C4.24517 35.8638 5.30435 36.5155 6.54945 37.0028C7.76448 37.4722 9.14198 37.7915 11.1627 37.8845C13.1881 37.9775 13.8398 38 18.9976 38C24.1602 38 24.8071 37.9775 26.8325 37.8845C28.8579 37.7915 30.2364 37.4722 31.4458 37.0028C32.6956 36.5155 33.7548 35.8638 34.8093 34.8093C35.8685 33.7548 36.5155 32.6909 36.9981 31.4458C37.4722 30.2354 37.7915 28.8533 37.8845 26.8325C37.9775 24.8071 38 24.1602 38 19.0024C38 13.8398 37.9775 13.1919 37.8845 11.1665Z" fill="white"/>
<path d="M18.9994 25.3309C15.5035 25.3309 12.6668 22.4989 12.6668 19.003C12.6668 15.5015 15.5035 12.6658 18.9994 12.6658C22.4962 12.6658 25.3366 15.5015 25.3366 19.003C25.3366 22.4989 22.4962 25.3309 18.9994 25.3309ZM18.9994 9.24038C13.6105 9.24038 9.24609 13.6142 9.24609 19.003C9.24609 24.3872 13.6105 28.7563 18.9994 28.7563C24.3882 28.7563 28.7573 24.3872 28.7573 19.003C28.7573 13.6142 24.3882 9.24038 18.9994 9.24038Z" fill="white"/>
</svg>
