<svg width="64" height="64" viewBox="0 0 64 64" fill="none" xmlns="http://www.w3.org/2000/svg">
<path d="M19.2 51.2C19.2 49.4318 18.4867 47.8367 17.325 46.675C16.1633 45.5133 14.5682 44.8 12.8 44.8C9.26538 44.8 6.4 47.6654 6.4 51.2C6.4 54.7346 9.26538 57.6 12.8 57.6C16.3346 57.6 19.2 54.7346 19.2 51.2ZM57.6 12.8C57.6 9.26538 54.7346 6.4 51.2 6.4C47.6654 6.4 44.8 9.26538 44.8 12.8C44.8 14.5047 45.4677 16.0441 46.5563 17.1938C46.5999 17.2329 46.6455 17.2705 46.6875 17.3125C46.7284 17.3534 46.7649 17.3981 46.8031 17.4406C47.9531 18.531 49.4937 19.2 51.2 19.2C54.7346 19.2 57.6 16.3346 57.6 12.8ZM64 12.8C64 19.8692 58.2692 25.6 51.2 25.6C48.8268 25.6 46.6027 24.9511 44.6969 23.825L23.825 44.6969C24.9511 46.6027 25.6 48.8268 25.6 51.2C25.6 58.2692 19.8692 64 12.8 64C5.73075 64 0 58.2692 0 51.2C0 44.1308 5.73075 38.4 12.8 38.4C15.1717 38.4 17.395 39.0471 19.3 40.1719L40.1719 19.3C39.0471 17.395 38.4 15.1717 38.4 12.8C38.4 5.73075 44.1308 0 51.2 0C58.2692 0 64 5.73075 64 12.8Z" fill="url(#paint0_linear_138_861)"/>
<defs>
<linearGradient id="paint0_linear_138_861" x1="0" y1="32" x2="64" y2="32" gradientUnits="userSpaceOnUse">
<stop stop-color="#7C622B"/>
<stop offset="1" stop-color="#FFD170"/>
</linearGradient>
</defs>
</svg>
