<svg width="64" height="64" viewBox="0 0 64 64" fill="none" xmlns="http://www.w3.org/2000/svg">
<path d="M10.3156 13.8619C20.3598 3.81739 38.0895 -1.21203 60.0034 0.248724C62.0141 0.382784 63.617 1.98207 63.7512 3.99283C65.2121 25.9089 60.1827 43.6424 50.1389 53.6877C45.054 58.773 38.7307 61.8114 31.6003 62.2799C25.3686 62.6893 18.7683 61.1208 12.0677 57.6165L6.86634 62.8221C5.29533 64.3926 2.74864 64.3927 1.17785 62.8221C-0.3926 61.251 -0.392636 58.7041 1.17785 57.1332L6.37921 51.9276C2.87835 45.2297 1.31486 38.6311 1.72392 32.4017C2.19252 25.2708 5.23066 18.9472 10.3156 13.8619ZM55.8981 8.09838C36.9955 7.4773 23.287 12.2677 16.0041 19.5507C12.1999 23.3552 10.0816 27.8801 9.74987 32.9281C9.49584 36.795 10.2824 41.1542 12.4016 45.9088L23.9318 34.3739C25.5027 32.8027 28.0531 32.803 29.6242 34.3739C31.1945 35.9446 31.194 38.4916 29.6242 40.0628L18.0901 51.5976C22.8458 53.7183 27.2064 54.5075 31.0739 54.2534C36.1207 53.9216 40.6428 51.8025 44.4465 47.9989C51.7297 40.7152 56.5196 27.0042 55.8981 8.09838Z" fill="url(#paint0_linear_138_853)"/>
<defs>
<linearGradient id="paint0_linear_138_853" x1="0" y1="32" x2="64" y2="32" gradientUnits="userSpaceOnUse">
<stop stop-color="#7C622B"/>
<stop offset="1" stop-color="#FFD170"/>
</linearGradient>
</defs>
</svg>
