<svg width="200" height="110" viewBox="0 0 200 110" fill="none" xmlns="http://www.w3.org/2000/svg">
<path d="M15.0254 83.3857C17.8291 84.7598 20.6328 86.207 23.4365 87.5811V92.7881L18.4043 95.3193L23.4365 97.8506V105.806C20.6329 107.18 17.829 108.626 15.0254 110L8.91406 106.963L5.46387 108.698L0 105.95L6.83008 102.551L14.9531 106.602L18.1162 105.01V98.6455L14.9531 97.0547L12.7969 98.1396C11.6468 97.5611 10.5681 96.9828 9.41797 96.4043L18.1162 91.9922V88.376L14.9531 86.7852L11.79 88.376V90.6182L6.61426 93.2217V87.5811L15.0254 83.3857ZM35.2988 83.3135C38.1025 84.6875 40.9063 86.1347 43.71 87.5088V107.976L41.1211 109.277L38.5332 107.976V88.3037L35.3701 86.7129L32.0635 88.376V107.613L27.3906 109.928L24.0117 108.192L26.8867 106.746V87.5088L35.2988 83.3135ZM64.0547 87.5088V107.976L61.4668 109.277L58.8789 107.976V101.177L52.4082 104.432V107.613L47.7354 109.928L44.3564 108.192L47.2324 106.746V87.5088C50.0362 86.1347 52.8398 84.6876 55.6436 83.3135L64.0547 87.5088ZM92.0205 83.3135C94.8242 84.7599 97.628 86.1347 100.432 87.5088V107.976L97.8438 109.277L95.2549 107.976V101.177L88.7852 104.432V107.613L84.1123 109.928C82.9621 109.349 81.8836 108.771 80.7334 108.192L83.6094 106.746V87.5088C86.413 86.1347 89.2168 84.6875 92.0205 83.3135ZM130.697 83.3135C133.501 84.7599 136.305 86.1347 139.108 87.5088V98.1396C136.305 99.586 133.501 100.96 130.697 102.334L127.534 100.743V107.541L122.861 109.855L122.573 109.928L119.339 108.265L122.214 106.818V98.2119L119.195 96.6934L115.744 98.4287L110.353 95.6807L117.182 92.2812L122.286 94.8125V86.4961L119.41 85.0498L122.789 83.3135L126.743 85.2666L130.697 83.3135ZM171.172 83.3857C173.976 84.8322 176.779 86.207 179.583 87.5811V90.6182L174.407 93.2217V88.376L171.244 86.7852L168.08 88.376V104.938L171.244 106.528L174.407 104.938V101.032L179.583 98.4287V105.733L171.172 109.928C168.368 108.554 165.564 107.107 162.761 105.733V87.5811C165.564 86.207 168.368 84.7598 171.172 83.3857ZM188.426 85.7002V91.5586L191.589 89.9668C194.393 91.3409 197.196 92.788 200 94.1621V105.733C197.196 107.18 194.393 108.554 191.589 109.928L183.178 105.733V86.4961L180.302 85.0498L180.877 84.832L183.753 83.3857L188.426 85.7002ZM147.735 85.6279V97.3438L150.898 98.9355L154.062 97.3438V85.6279L156.65 84.3262L159.238 85.6279V105.661L150.827 109.855L142.919 105.878L139.468 107.613L134.076 104.865C136.377 103.708 138.606 102.552 140.906 101.467L150.827 106.456L154.134 104.938V100.815L150.971 102.406C148.167 101.032 145.363 99.586 142.56 98.2119V86.4961L139.684 85.0498L143.062 83.3135L147.735 85.6279ZM78.5762 83.3857C80.5891 84.3982 82.6029 85.4113 84.5439 86.4238L79.7988 88.8105L77.2109 87.5088L76.4199 87.8701V108.048L73.832 109.35L73.6885 109.277L71.2441 108.048V87.8701L70.4531 87.5088L67.8652 88.8105L63.1201 86.4238C65.1331 85.4113 67.1459 84.3982 69.0869 83.3857C70.6685 84.1813 72.2504 84.9769 73.832 85.7725C75.4135 84.977 76.9947 84.1812 78.5762 83.3857ZM188.426 94.957V104.938L191.589 106.528L194.752 104.938V94.957L191.589 93.3662L188.426 94.957ZM52.4082 88.376V101.032L58.8066 97.8506V88.4482L55.6436 86.8574L52.4082 88.376ZM88.7852 88.376V101.032L95.1836 97.8506V88.4482L92.0205 86.7852L88.7852 88.376ZM127.391 88.376V97.416L130.554 99.0078L133.717 97.416V88.376L130.554 86.7852L127.391 88.376ZM100.229 0C110.222 0 119.209 4.04974 125.751 10.6309C132.293 17.2121 136.319 26.253 136.319 36.3057C136.319 46.3581 132.293 55.3984 125.751 61.9795C119.209 68.5606 110.222 72.6104 100.229 72.6104C90.237 72.6103 81.251 68.5604 74.709 61.9795C68.167 55.3984 64.1407 46.2858 64.1406 36.3057C64.1406 26.253 68.1669 17.2121 74.709 10.6309C81.2509 4.04992 90.237 7.42111e-05 100.229 0ZM100.229 5.20703C91.6747 5.20711 83.9824 8.67842 78.375 14.3193C72.7675 19.9604 69.3164 27.6995 69.3164 36.3057C69.3165 44.9117 72.7676 52.6501 78.375 58.291C83.9824 63.9319 91.6747 67.4032 100.229 67.4033C108.784 67.4033 116.477 63.9321 122.085 58.291C127.692 52.6501 131.142 44.9116 131.143 36.3057C131.143 27.6995 127.621 19.9604 122.085 14.3193C116.477 8.67829 108.713 5.20703 100.229 5.20703ZM99.4785 61.6172V64.1484L97.8252 63.7871L97.7529 61.3281L99.4785 61.6172ZM102.426 63.7871L100.772 64.1484V61.6172L102.498 61.3281L102.426 63.7871ZM96.6748 61.2559V63.5703L95.165 63.2812L95.0928 60.9668L96.6748 61.2559ZM105.014 63.209L103.504 63.498L103.433 61.1113L105.014 60.8223V63.209ZM94.1582 60.75L94.0869 62.9912L92.4336 62.6299V60.46L94.1582 60.75ZM107.817 62.6299L106.164 62.9912L106.093 60.75L107.817 60.46V62.6299ZM91.3545 60.0986L91.2832 61.3281L91.2109 62.3408L89.6299 61.4004L89.7734 59.1582L91.3545 60.0986ZM110.621 61.4004L109.04 62.3408L108.968 61.2559L108.896 60.0264L110.478 59.0859L110.621 61.4004ZM88.5508 58.5801L88.4072 59.665L88.335 60.6777L86.7539 59.7373L86.9697 57.6396L88.5508 58.5801ZM113.425 59.7373L111.844 60.6777L111.7 59.5928L111.556 58.5078L113.138 57.5674L113.425 59.7373ZM116.229 58.0742L114.72 59.0137L114.504 58.001L114.288 57.0615L115.869 56.1211L116.229 58.0742ZM85.8906 56.917L85.6758 57.8564L85.5312 58.9414L84.0215 58.001L84.3096 55.9766L85.8906 56.917ZM121.477 44.333L114.863 53.8789L107.387 57.7842L100.125 58.5801L92.8643 57.7842L85.3877 53.8789L78.7744 44.333L78.8457 44.1162L86.0352 52.7217L93.3682 56.4824L100.125 57.0615L106.883 56.4102L114.216 52.6494L121.405 44.1162L121.477 44.333ZM81.9375 53.1562C82.3687 53.7346 82.7997 54.3132 83.3027 54.8916L82.9434 56.1934L82.7998 56.917C82.3686 56.4832 82.0093 56.049 81.5781 55.6152L81.9375 53.1562ZM118.673 55.6152C118.313 56.049 117.882 56.4832 117.451 56.917L117.235 56.2656L116.876 54.9639C117.379 54.3853 117.811 53.8071 118.242 53.2285L118.673 55.6152ZM79.709 49.7568C80.1403 50.4077 80.5716 51.0591 81.0029 51.7822L80.7148 52.8662L80.3555 54.0957C79.9961 53.5896 79.6367 53.0833 79.2773 52.5771L79.709 49.7568ZM120.974 52.5771C120.614 53.0833 120.255 53.5896 119.896 54.0957L119.536 52.8662L119.248 51.7822C119.679 51.1314 120.111 50.48 120.542 49.7568L120.974 52.5771ZM103.001 46.9365L104.654 47.7314V49.6123L103.36 51.4199V49.3232L103.001 49.8291L101.275 52.0713L101.132 52.1436L100.125 52.6494L99.1191 52.1436L98.9756 52.0713L97.25 49.8291L96.8906 49.3232V51.4199L95.5967 49.6123V47.6592L97.25 46.8643L100.125 45.418L103.001 46.9365ZM88.0479 22.4199L90.6357 21.1182H96.9619L100.054 22.709L103.217 21.1182H109.543L112.131 22.4199L115.51 17.9355H118.386L118.817 18.1523L122.411 19.9609V27.3369L120.902 29.29L120.039 28.1328L118.529 26.1797L120.614 23.3594V21.0449L117.667 25.0234L117.164 24.2998L119.896 20.6113L118.602 19.9609L116.373 23.1426L115.869 22.4199L117.954 19.5986H116.229L113.641 23.1426L118.602 29.7236L120.758 32.6172L123.059 35.6543C124.353 39.1257 125.216 42.163 125.575 44.8389C125.216 45.5621 124.784 46.2856 124.425 46.9365L124.209 46.0684L123.49 43.5371L121.477 36.3047L116.373 29.7959L115.941 30.0127L119.033 36.9561V43.6094L118.673 44.0439L117.667 38.041L115.366 34.7861L114.935 35.0029L116.157 39.1982L116.085 46.8643L115.366 47.6592L114.504 40.5L112.131 36.5225L111.7 36.7393L112.635 41.9463L111.987 51.2754L111.125 52.2158L110.406 43.6816L107.027 33.7012H111.987L112.635 32.9062L113.856 31.3154V28.0605L111.771 29.0732H108.105L105.518 30.375L105.086 30.0859L105.661 29.3623L106.523 28.2051H104.295L102.066 29.3623L100.916 27.7715V24.3721L102.857 23.3594L101.779 22.8535L100.7 23.4316L100.197 23.6484L99.6943 23.4316L98.6162 22.8535L97.5371 23.3594L99.4785 24.3721V27.7715L98.3281 29.3623L96.0996 28.2051H93.8711L94.7334 29.3623L95.3086 30.0859L94.8779 30.375L92.2891 29.0732H88.623L86.5381 28.0605V31.3154L87.7607 32.9062L88.4072 33.7012H93.3682L89.9893 43.6816L89.2695 52.2158L88.4072 51.2754L87.6162 41.874L88.5508 36.667L88.1201 36.4502L85.7471 40.4277L84.8848 47.5869L84.166 46.792L84.0938 39.126L85.3164 34.9307L84.8848 34.7139L82.584 37.9688L81.5781 43.9707L81.2178 43.5371V36.8838L84.3096 29.9404L83.8779 29.7236L78.7744 36.2324L76.5449 44.4053L76.1143 45.9961L75.8984 46.8643C75.539 46.2134 75.1794 45.4898 74.748 44.7666C75.1075 42.0907 75.9706 39.0534 77.2646 35.582L79.5645 32.5439L81.7217 29.6514L86.6816 23.0703L84.0938 19.5264H82.3682L84.4531 22.3467L83.9502 23.0703L81.5781 19.9609L80.2832 20.6113L83.0156 24.2998L82.5127 25.0234L79.5645 21.0449V23.3594L81.6494 26.1797L80.1396 28.1328L79.2773 29.29L77.7676 27.3369V19.9609L81.3623 18.1523L81.793 17.9355H84.6689L88.0479 22.4199ZM103.576 30.8086L105.302 31.6768V33.3398L107.099 39.9932L106.308 42.7412L106.883 44.7666L107.674 42.0908L108.393 44.7666V49.6846L106.308 51.8545V47.0088L105.373 45.7793L104.367 45.2725L101.563 43.8262V41.8018L101.995 41.2227L102.714 40.2832H103.36L103.936 41.4395L105.805 40.3555L104.583 33.9189L103.217 33.2676L100.197 33.8467L97.1777 33.2676L95.8125 33.9189L94.5898 40.3555L96.459 41.4395L97.0342 40.2832H97.5371L98.2559 41.2227L98.6875 41.8018V43.8262L95.8838 45.2725L94.8779 45.7793L93.9434 47.0088V51.8545L91.7139 49.6846V44.7666L92.4336 42.0908L93.2236 44.7666L93.7988 42.7412L93.0078 39.9932L94.8057 33.3398V31.6768L96.5312 30.8086H103.576ZM123.202 49.0332C122.843 49.6118 122.483 50.2632 122.124 50.8418L121.765 49.54L121.405 48.3105C121.837 47.5873 122.268 46.8639 122.699 46.0684L123.202 49.0332ZM77.4082 45.9961C77.8395 46.7916 78.2708 47.5151 78.7021 48.2383L78.3428 49.4678L78.0547 50.7695C77.6952 50.191 77.336 49.6118 76.9766 48.9609L77.4082 45.9961ZM98.1123 36.667V37.2451H97.8252L97.4658 36.7393H96.8906V36.0879H97.6816L98.1123 36.667ZM103.36 36.0879V36.7393H102.785L102.426 37.2451H102.139V36.667L102.569 36.0879H103.36ZM92.7207 31.8936H91.0674L90.0605 30.5918H91.7139L92.7207 31.8936ZM110.19 30.5918L109.184 31.8936H107.53L108.465 30.5918H110.19ZM96.2432 26.0352L98.5439 27.1924L98.9033 27.3369L98.8311 26.2529L98.4004 26.0352L97.3213 25.457L96.2432 26.0352ZM101.923 26.0352L101.42 26.2529V27.2646L101.779 27.1201L104.079 25.9629L103.001 25.457L101.923 26.0352Z" fill="url(#paint0_linear_138_872)"/>
<defs>
<linearGradient id="paint0_linear_138_872" x1="0" y1="55" x2="200" y2="55" gradientUnits="userSpaceOnUse">
<stop stop-color="#7C622B"/>
<stop offset="1" stop-color="#FFD170"/>
</linearGradient>
</defs>
</svg>
