<svg width="118" height="16" viewBox="0 0 118 16" fill="none" xmlns="http://www.w3.org/2000/svg">
<path d="M106.718 0.8974L108.414 0.0426979L111.171 1.4102V4.8718L113.037 3.9316C114.692 4.7436 116.346 5.5983 118 6.4102V13.2478C116.346 14.1025 114.692 14.9145 113.037 15.7265L108.075 13.2478V1.8803L106.378 1.0256L106.718 0.8974ZM111.171 6.8803V12.7778L113.037 13.7179L114.904 12.7778V6.8803L113.037 5.9401L111.171 6.8803ZM90.9385 12.7778V10.3419L89.0722 11.282C87.418 10.4701 85.7638 9.6154 84.1096 8.8034V1.8803L82.4129 1.0256L84.4065 0L87.1635 1.3675V8.2906L89.0298 9.2307L90.8961 8.2906V1.3675L92.423 0.598301L93.95 1.3675V13.2051L88.9874 15.6837L84.3216 13.3333L82.2857 14.359L79.1045 12.735C80.4618 12.0513 81.7767 11.3675 83.134 10.7265L88.9874 13.6752L90.9385 12.7778ZM72.318 15.7265L70.4094 14.7436L72.106 13.8889V8.8034L70.3245 7.906L68.2886 8.9316L65.1074 7.3077L69.1369 5.2991L72.1484 6.7948V1.8803L70.4518 1.0256L72.4453 0L74.7782 1.1538L77.111 0C78.7652 0.8547 80.4194 1.6666 82.0736 2.4786V8.7607C80.4194 9.6154 78.7652 10.4273 77.111 11.2393L75.2447 10.2991V14.3162L72.4877 15.6837L72.318 15.7265ZM75.1599 8.3333L77.0262 9.2735L78.8925 8.3333V2.9914L77.0262 2.0513L75.1599 2.9914V8.3333ZM99.1671 2.9914V12.7778L101.034 13.7179L102.9 12.7778V10.4701L105.954 8.9316V13.2478L100.991 15.7265C99.3367 14.9145 97.6825 14.0598 96.0283 13.2478V2.5213C97.6825 1.7094 99.3367 0.854698 100.991 0.0426979C102.646 0.897398 104.3 1.7094 105.954 2.5213V4.3162L102.9 5.8547V2.9914L101.034 2.0513L99.1671 2.9914Z" fill="#D7B56D"/>
<path d="M10.6887 5.1282V2.9914L8.82243 2.0513L6.95615 2.9914V4.3162L3.90223 5.8547V2.5213L8.86484 0.0426979C10.5191 0.854698 12.1733 1.7094 13.8275 2.5213V5.5983L10.8584 7.094L13.8275 8.5897V13.2906C12.1733 14.1025 10.5191 14.9572 8.86484 15.7692L5.25953 13.9743L3.22358 15L0 13.376L4.02948 11.3675L8.82243 13.7607L10.6887 12.8205V9.0598L8.82243 8.1196L7.54996 8.7607C6.87131 8.4188 6.23508 8.0769 5.55643 7.735L10.6887 5.1282ZM30.9209 2.9914V10.4701L34.6959 8.5897V3.0342L32.8296 2.094L30.9209 2.9914ZM30.9209 12.4786V14.359L28.1639 15.7265L26.1704 14.7008L27.867 13.8461V2.4786C29.5212 1.6666 31.1754 0.8119 32.8296 0L37.7922 2.4786V14.5726L36.2653 15.3419L34.7383 14.5726V10.5555L30.9209 12.4786ZM43.4759 15.3419L42.0338 14.6154V2.6923L41.5672 2.4786L40.0403 3.2478L37.2408 1.8376C38.4285 1.2393 39.6161 0.640998 40.7613 0.0426979C41.6945 0.512798 42.6276 0.982899 43.5607 1.453C44.4939 0.982899 45.427 0.512798 46.3602 0.0426979C47.5478 0.640998 48.7354 1.2393 49.8807 1.8376L47.0812 3.2478L45.5543 2.4786L45.0877 2.6923V14.6154L43.5607 15.3846L43.4759 15.3419ZM52.3832 2.9914V10.4701L56.1582 8.5897V3.0342L54.2919 2.0513L52.3832 2.9914ZM52.3832 12.4786V14.359L49.6262 15.7265C48.9475 15.3846 48.3113 15.0427 47.6326 14.7008L49.3293 13.8461V2.4786C50.9835 1.6666 52.6377 0.8119 54.2919 0C55.9461 0.8547 57.6003 1.6666 59.2545 2.4786V14.5726L57.7275 15.3419L56.2006 14.5726V10.5555L52.3832 12.4786ZM18.9173 2.9914V14.359L16.1603 15.7265L14.1668 14.7008L15.8634 13.8461V2.4786L20.826 0C22.4802 0.8119 24.1344 1.6666 25.7886 2.4786V14.5726L24.2617 15.3419L22.7347 14.5726V2.9487L20.8684 2.0085L18.9173 2.9914Z" fill="#D7B56D"/>
</svg>
