<svg width="72" height="72" viewBox="0 0 72 72" fill="none" xmlns="http://www.w3.org/2000/svg">
<path d="M6 14.6836C6 9.88722 9.88814 6.00033 14.6836 6H22.9365C26.6165 6 29.9251 8.24059 31.292 11.6572L34.459 19.5645L34.667 20.1445C35.6108 23.0691 34.9972 26.2907 33.0146 28.6699H33.0117L31.3096 30.709L31.3125 30.7119C30.3214 31.9015 30.3983 33.6528 31.4971 34.752H31.5L37.248 40.5059H37.2451C38.3412 41.6019 40.0953 41.6804 41.2881 40.6875L43.3301 38.9854L43.8193 38.6074C46.3075 36.8071 49.5588 36.3932 52.4355 37.5439L60.3428 40.7051H60.3457C63.7618 42.072 65.9995 45.3814 66 49.0605V57.3164L65.9561 58.2041C65.5112 62.5825 61.8131 66 57.3164 66C28.9755 66 6 43.0245 6 14.6836ZM12 14.6836C12 39.7108 32.2892 60 57.3164 60C58.798 60 59.9995 58.799 60 57.3164V49.0605C59.9995 47.9874 59.4292 47.0093 58.5234 46.4766L58.1162 46.2773L50.2061 43.1133C49.3109 42.7555 48.308 42.8524 47.5049 43.3535L47.1738 43.5938L45.1318 45.2959C41.7798 48.0893 36.9453 48.0568 33.6416 45.3281L33.0029 44.748L27.2549 38.9941C23.9659 35.7047 23.7195 30.4462 26.7012 26.8682H26.7041L28.4062 24.8262C29.0239 24.0836 29.2416 23.0986 29.0127 22.1807L28.8867 21.7939L25.7227 13.8867C25.2671 12.7477 24.1632 12 22.9365 12H14.6836C13.201 12.0003 12 13.2018 12 14.6836Z" fill="url(#paint0_linear_345_249)"/>
<defs>
<linearGradient id="paint0_linear_345_249" x1="6" y1="36" x2="66" y2="36" gradientUnits="userSpaceOnUse">
<stop stop-color="#1C3B3E"/>
<stop offset="1" stop-color="#19474B"/>
</linearGradient>
</defs>
</svg>
