<svg width="1600" height="34" viewBox="0 0 1600 34" fill="none" xmlns="http://www.w3.org/2000/svg">
<path d="M902.122 8.14211L897.411 10.4684L910.21 16.9105L897.411 23.3526L902.122 25.6789L914.921 19.2368L923.009 23.3526L910.21 29.7947L914.921 32.1211L927.719 25.6789L940.518 32.1211L945.228 29.7947L932.43 23.3526L940.518 19.2368L953.316 25.6789L958.027 23.3526L945.228 16.9105L958.027 10.4684L953.316 8.14211L940.518 14.5842L932.43 10.4684L945.228 4.02632L940.518 1.7L927.719 8.14211L914.921 1.7L910.21 4.02632L923.009 10.4684L914.921 14.5842L902.122 8.14211ZM838.218 1.7L833.507 4.02632L846.306 10.4684L833.507 16.9105L846.306 23.3526L833.507 29.7947L838.218 32.1211L851.017 25.6789C855.283 27.8263 859.549 29.9737 863.815 32.1211L876.614 25.6789L889.412 32.1211L894.123 29.7947L881.324 23.3526L894.123 16.9105L881.324 10.4684L894.123 4.02632L889.412 1.7L876.614 8.14211L863.815 1.7L851.017 8.14211L838.218 1.7ZM838.307 0L851.105 6.44211L863.815 0L876.614 6.44211L889.412 0L897.5 4.11579L884.702 10.5579L897.5 17L884.702 23.4421L897.5 29.8842L889.412 34L876.614 27.5579L863.815 34L851.017 27.5579L838.218 34L830.13 29.8842L842.929 23.4421L829.863 16.9105L831.552 16.3737L842.929 10.6474L830.13 4.11579L838.307 0ZM774.403 8.14211L769.692 10.4684L782.491 16.9105L769.692 23.3526L774.403 25.6789L787.201 19.2368L795.289 23.3526L782.491 29.7947L787.201 32.1211L800 25.6789L812.799 32.1211L817.509 29.7947L804.711 23.3526L812.799 19.2368L825.597 25.6789L830.308 23.3526L817.509 16.9105L830.308 10.4684L825.597 8.14211L812.799 14.5842L804.711 10.4684L817.509 4.02632L812.799 1.7L799.911 8.14211L787.113 1.7L782.402 4.02632L795.201 10.4684L787.113 14.5842L774.403 8.14211ZM767.648 9.84211L774.403 6.44211L787.201 12.8842L791.912 10.5579L779.113 4.11579L787.201 0L799.911 6.44211L812.71 0L820.798 4.11579L807.999 10.5579L812.71 12.8842L825.508 6.44211L833.596 10.5579L820.798 17L833.596 23.4421L825.508 27.5579L812.71 21.1158L807.999 23.4421L820.798 29.8842L812.71 34L799.911 27.4684L787.113 33.9105L779.025 29.7947L791.823 23.3526L787.113 21.0263L774.314 27.4684L766.226 23.3526L779.025 16.9105L766.226 10.4684L767.648 9.84211ZM799.556 20.8474L791.823 16.9105L799.911 12.7947L807.999 16.9105L799.911 21.0263L799.556 20.8474ZM795.289 16.9105L800 19.2368L804.711 16.9105L800 14.5842L795.289 16.9105ZM863.46 27.2895L855.727 23.3526L863.815 19.2368L871.903 23.3526L863.815 27.4684L863.46 27.2895ZM859.105 23.3526L863.815 25.6789L868.526 23.3526L863.815 21.0263L859.105 23.3526ZM876.258 20.8474L868.526 16.9105L876.614 12.7947L884.702 16.9105L876.614 21.0263L876.258 20.8474ZM871.903 16.9105L876.614 19.2368L881.324 16.9105L876.614 14.5842L871.903 16.9105ZM870.481 11.1842L863.726 14.5842L855.638 10.4684L863.726 6.35263L871.814 10.4684L870.481 11.1842ZM863.815 12.8842L868.526 10.5579L863.815 8.23158L859.105 10.5579L863.815 12.8842ZM851.372 13.0632L859.105 17L851.017 21.1158L842.929 17L851.017 12.8842L851.372 13.0632ZM855.727 16.9105L851.017 14.5842L846.306 16.9105L851.017 19.2368L855.727 16.9105ZM895.367 9.84211L902.122 6.44211L914.921 12.8842L919.631 10.5579L906.833 4.11579L914.921 0L927.719 6.44211L940.518 0L948.606 4.11579L935.807 10.5579L940.518 12.8842L953.316 6.44211L961.404 10.5579L948.606 17L961.404 23.4421L953.316 27.5579L940.518 21.1158L935.807 23.4421L948.606 29.8842L940.518 34L927.719 27.5579L914.921 34L906.833 29.8842L919.631 23.4421L914.921 21.1158L902.122 27.5579L894.034 23.4421L906.833 17L894.034 10.5579L895.367 9.84211ZM927.275 20.8474L919.542 16.9105L927.63 12.7947L935.718 16.9105L927.63 21.0263L927.275 20.8474ZM923.009 16.9105L927.719 19.2368L932.43 16.9105L927.719 14.5842L923.009 16.9105ZM1019.71 19.6842L1012.42 23.3526L1025.22 29.7947L1017.13 33.9105L1004.33 27.4684L991.534 33.9105L978.736 27.4684L965.937 33.9105L957.849 29.7947L970.648 23.3526L957.583 16.8211L959.271 16.2842L970.648 10.5579L957.849 4.11579L965.937 0L978.736 6.44211L991.534 0L1004.33 6.44211L1017.13 0L1025.22 4.11579L1012.42 10.5579L1025.22 17L1019.71 19.6842ZM1021.66 16.9105L1008.87 10.4684L1021.66 4.02632L1016.95 1.7L1004.16 8.14211C999.889 5.99474 995.623 3.84737 991.357 1.7L978.558 8.14211L965.759 1.7L961.049 4.02632L973.847 10.4684L961.049 16.9105L973.847 23.3526L961.049 29.7947L965.759 32.1211L978.558 25.6789L991.357 32.1211L1004.16 25.6789L1016.95 32.1211L1021.66 29.7947L1008.87 23.3526L1021.66 16.9105ZM991.534 25.6789L996.245 23.3526L991.534 21.0263L986.824 23.3526L991.534 25.6789ZM998.2 24.0684L991.445 27.4684L983.358 23.3526L991.445 19.2368L999.533 23.3526L998.2 24.0684ZM1004.24 19.3263L1008.95 17L1004.24 14.6737L999.533 17L1004.24 19.3263ZM1011 17.6263L1004.24 21.0263L996.156 16.9105L1004.24 12.7947L1012.33 16.9105L1011 17.6263ZM991.801 6.62105L999.533 10.5579L991.445 14.6737L983.358 10.5579L991.445 6.44211L991.801 6.62105ZM996.156 10.4684L991.445 8.14211L986.735 10.4684L991.445 12.7947L996.156 10.4684ZM978.736 14.5842L974.025 16.9105L978.736 19.2368L983.446 16.9105L978.736 14.5842ZM971.981 16.2842L978.736 12.8842L986.824 17L978.736 21.1158L970.648 17L971.981 16.2842ZM1029.84 8.14211L1025.13 10.4684L1037.93 16.9105L1025.13 23.3526L1029.84 25.6789L1042.64 19.2368L1050.73 23.3526L1037.93 29.7947L1042.64 32.1211L1055.44 25.6789L1068.24 32.1211L1072.95 29.7947L1060.15 23.3526L1068.24 19.2368L1081.04 25.6789L1085.75 23.3526L1072.95 16.9105L1085.75 10.4684L1081.04 8.14211L1068.24 14.5842L1060.15 10.4684L1072.95 4.02632L1068.24 1.7L1055.44 8.14211L1042.55 1.7L1037.84 4.02632L1050.64 10.4684L1042.55 14.5842L1029.84 8.14211ZM1029.84 6.44211L1042.64 12.8842L1047.35 10.5579L1034.55 4.11579L1042.55 0L1055.35 6.44211L1068.15 0L1076.24 4.11579L1063.44 10.5579L1068.15 12.8842L1080.95 6.44211L1089.03 10.5579L1076.24 17L1089.03 23.4421L1080.95 27.5579L1068.15 21.1158L1063.44 23.4421L1076.24 29.8842L1068.15 34L1055.35 27.5579L1042.55 34L1034.46 29.8842L1047.26 23.4421L1042.55 21.1158L1029.75 27.5579L1021.66 23.4421L1034.46 17L1021.66 10.5579L1029.84 6.44211ZM1054.99 20.8474L1047.26 16.9105L1055.35 12.7947L1063.44 16.9105L1055.35 21.0263L1054.99 20.8474ZM1050.64 16.9105L1055.35 19.2368L1060.06 16.9105L1055.35 14.5842L1050.64 16.9105Z" fill="#D7B56D"/>
<path d="M646.684 8.14211L641.973 10.4684L654.772 16.9105L641.973 23.3526L646.684 25.6789L659.482 19.2368L667.57 23.3526L654.772 29.7947L659.482 32.1211L672.281 25.6789L685.079 32.1211L689.79 29.7947L676.991 23.3526L685.079 19.2368L697.878 25.6789L702.589 23.3526L689.701 16.9105L702.5 10.4684L697.789 8.14211L684.991 14.5842L676.903 10.4684L689.701 4.11579L684.991 1.78947L672.192 8.23158L659.482 1.7L654.772 4.02632L667.57 10.4684L659.482 14.5842L646.684 8.14211ZM582.78 1.7L578.069 4.02632L590.868 10.4684L578.069 16.9105L590.868 23.3526L578.069 29.7947L582.78 32.1211L595.578 25.6789C599.844 27.8263 604.111 29.9737 608.377 32.1211L621.175 25.6789L633.974 32.1211L638.685 29.7947L625.886 23.3526L638.685 16.9105L625.886 10.4684L638.685 4.02632L633.974 1.7L621.175 8.14211L608.377 1.7L595.578 8.14211L582.78 1.7ZM582.869 0L595.667 6.44211L608.377 0L621.175 6.44211L633.885 0L641.973 4.11579L629.263 10.4684L642.062 16.9105L629.263 23.3526L642.062 29.7947L633.974 33.9105L621.175 27.4684L608.377 33.9105L595.578 27.4684L582.78 33.9105L574.692 29.7947L587.49 23.3526L574.425 16.8211L576.114 16.2842L587.49 10.5579L574.692 4.11579L582.869 0ZM518.965 8.14211L514.254 10.4684L527.053 16.9105L514.254 23.3526L518.965 25.6789L531.763 19.2368L539.851 23.3526L527.053 29.7947L531.763 32.1211L544.562 25.6789L557.36 32.1211L562.071 29.7947L549.272 23.3526L557.36 19.2368L570.159 25.6789L574.87 23.3526L562.071 16.9105L574.87 10.4684L570.159 8.14211L557.271 14.5842L549.183 10.4684L561.982 4.02632L557.271 1.7L544.473 8.14211L531.674 1.7L527.053 4.11579L539.851 10.5579L531.763 14.6737L518.965 8.14211ZM512.21 9.84211L518.965 6.44211L531.763 12.8842L536.474 10.5579L523.675 4.11579L531.763 0L544.562 6.44211L557.271 0L565.359 4.11579L552.561 10.5579L557.271 12.8842L570.07 6.44211L578.158 10.5579L565.359 17L578.158 23.4421L570.07 27.5579L557.271 21.0263L552.561 23.3526L565.359 29.7947L557.271 33.9105L544.473 27.4684L531.674 33.9105L523.586 29.7947L536.385 23.3526L531.674 21.0263L518.876 27.4684L510.788 23.3526L523.586 16.9105L510.788 10.4684L512.21 9.84211ZM544.117 20.8474L536.385 16.9105L544.473 12.7947L552.561 16.9105L544.473 21.0263L544.117 20.8474ZM539.851 16.9105L544.562 19.2368L549.272 16.9105L544.562 14.5842L539.851 16.9105ZM608.021 27.2895L600.289 23.3526L608.377 19.2368L616.465 23.3526L608.377 27.4684L608.021 27.2895ZM603.666 23.3526L608.377 25.6789L613.087 23.3526L608.377 21.0263L603.666 23.3526ZM620.82 20.8474L613.087 16.9105L621.175 12.7947L629.263 16.9105L621.175 21.0263L620.82 20.8474ZM616.465 16.9105L621.175 19.2368L625.886 16.9105L621.175 14.5842L616.465 16.9105ZM615.043 11.1842L608.288 14.5842L600.2 10.4684L608.288 6.35263L616.376 10.4684L615.043 11.1842ZM608.377 12.8842L613.087 10.5579L608.377 8.23158L603.666 10.5579L608.377 12.8842ZM595.934 13.0632L603.666 17L595.578 21.1158L587.49 17L595.578 12.8842L595.934 13.0632ZM600.289 16.9105L595.578 14.5842L590.868 16.9105L595.578 19.2368L600.289 16.9105ZM639.929 9.84211L646.684 6.44211L659.482 12.8842L664.193 10.5579L651.394 4.11579L659.482 0L672.281 6.44211L684.991 0L693.079 4.11579L680.28 10.5579L684.991 12.8842L697.789 6.44211L705.877 10.5579L693.079 17L705.877 23.4421L697.789 27.5579L684.991 21.1158L680.28 23.4421L693.079 29.8842L684.991 34L672.192 27.5579L659.482 33.9105L651.394 29.7947L664.193 23.3526L659.482 21.0263L646.684 27.4684L638.596 23.3526L651.394 16.9105L638.596 10.4684L639.929 9.84211ZM671.837 20.8474L664.104 16.9105L672.192 12.7947L680.28 16.9105L672.192 21.0263L671.837 20.8474ZM667.57 16.9105L672.281 19.2368L676.991 16.9105L672.281 14.5842L667.57 16.9105ZM764.271 19.6842L756.983 23.3526L769.781 29.7947L761.693 33.9105L748.895 27.4684L736.096 33.9105L723.297 27.4684L710.499 33.9105L702.411 29.7947L715.209 23.3526L702.144 16.8211L703.833 16.2842L715.209 10.5579L702.411 4.11579L710.499 0L723.297 6.44211L736.096 0L748.895 6.44211L761.604 0L769.692 4.11579L756.894 10.5579L769.692 17L764.271 19.6842ZM766.226 16.9105L753.427 10.4684L766.226 4.02632L761.515 1.7L748.717 8.14211C744.451 5.99474 740.184 3.84737 735.918 1.7L723.12 8.14211L710.321 1.7L705.611 4.02632L718.409 10.4684L705.611 16.9105L718.409 23.3526L705.611 29.7947L710.321 32.1211L723.12 25.6789L735.918 32.1211L748.717 25.6789L761.515 32.1211L766.226 29.7947L753.427 23.3526L766.226 16.9105ZM736.096 25.6789L740.807 23.3526L736.096 21.0263L731.385 23.3526L736.096 25.6789ZM742.762 24.0684L736.007 27.4684L727.919 23.3526L736.007 19.2368L744.095 23.3526L742.762 24.0684ZM748.806 19.3263L753.516 17L748.806 14.6737L744.095 17L748.806 19.3263ZM755.56 17.6263L748.806 21.0263L740.718 16.9105L748.806 12.7947L756.894 16.9105L755.56 17.6263ZM736.452 6.62105L744.184 10.5579L736.096 14.6737L728.008 10.5579L736.096 6.44211L736.452 6.62105ZM740.718 10.4684L736.007 8.14211L731.297 10.4684L736.007 12.7947L740.718 10.4684ZM723.297 14.5842L718.587 16.9105L723.297 19.2368L728.008 16.9105L723.297 14.5842ZM716.543 16.2842L723.297 12.8842L731.385 17L723.297 21.1158L715.209 17L716.543 16.2842Z" fill="#D7B56D"/>
<path d="M1157.56 8.14211L1152.85 10.4684L1165.65 16.9105L1152.85 23.3526L1157.56 25.6789L1170.36 19.2368L1178.45 23.3526L1165.65 29.7947L1170.36 32.1211L1183.16 25.6789L1195.96 32.1211L1200.67 29.7947L1187.87 23.3526L1195.96 19.2368L1208.75 25.6789L1213.47 23.3526L1200.67 16.9105L1213.47 10.4684L1208.75 8.14211L1195.96 14.5842L1187.87 10.4684L1200.67 4.02632L1195.96 1.7L1183.16 8.14211L1170.36 1.7L1165.65 4.02632L1178.45 10.4684L1170.36 14.5842L1157.56 8.14211ZM1093.66 1.7L1088.95 4.02632L1101.74 10.4684L1088.95 16.9105L1101.74 23.3526L1088.95 29.7947L1093.66 32.1211L1106.45 25.6789C1110.72 27.8263 1114.99 29.9737 1119.25 32.1211L1132.05 25.6789L1144.85 32.1211L1149.56 29.7947L1136.76 23.3526L1149.56 16.9105L1136.76 10.4684L1149.56 4.02632L1144.85 1.7L1132.05 8.14211L1119.25 1.7L1106.45 8.14211L1093.66 1.7ZM1086.9 3.4L1093.66 0L1106.45 6.44211L1119.25 0L1132.05 6.44211L1144.76 0L1152.85 4.11579L1140.05 10.5579L1152.85 17L1140.05 23.4421L1152.85 29.8842L1144.76 34L1131.96 27.5579L1119.16 34L1106.37 27.5579L1093.57 34L1085.48 29.8842L1098.28 23.4421L1085.21 16.9105L1086.9 16.3737L1098.28 10.6474L1085.48 4.20526L1086.9 3.4ZM1118.9 27.2895L1111.17 23.3526L1119.25 19.2368L1127.34 23.3526L1119.25 27.4684L1118.9 27.2895ZM1114.54 23.3526L1119.25 25.6789L1123.96 23.3526L1119.25 21.0263L1114.54 23.3526ZM1131.61 20.8474L1123.88 16.9105L1131.96 12.7947L1140.05 16.9105L1131.96 21.0263L1131.61 20.8474ZM1127.34 16.9105L1132.05 19.2368L1136.76 16.9105L1132.05 14.5842L1127.34 16.9105ZM1125.92 11.1842L1119.16 14.5842L1111.08 10.4684L1119.16 6.35263L1127.25 10.4684L1125.92 11.1842ZM1119.25 12.8842L1123.96 10.5579L1119.25 8.23158L1114.54 10.5579L1119.25 12.8842ZM1106.81 13.0632L1114.54 17L1106.45 21.1158L1098.37 17L1106.45 12.8842L1106.81 13.0632ZM1111.08 16.9105L1106.37 14.5842L1101.66 16.9105L1106.37 19.2368L1111.08 16.9105ZM1150.81 9.84211L1157.56 6.44211L1170.36 12.8842L1175.07 10.5579L1162.27 4.11579L1170.36 0L1183.16 6.44211L1195.96 0L1204.04 4.11579L1191.25 10.5579L1195.96 12.8842L1208.75 6.44211L1216.84 10.5579L1204.04 17L1216.84 23.4421L1208.75 27.5579L1195.96 21.1158L1191.25 23.4421L1204.04 29.8842L1195.96 34L1183.16 27.5579L1170.36 34L1162.27 29.8842L1175.07 23.4421L1170.36 21.1158L1157.56 27.5579L1149.47 23.4421L1162.27 17L1149.47 10.5579L1150.81 9.84211ZM1182.71 20.8474L1174.98 16.9105L1183.07 12.7947L1191.16 16.9105L1183.07 21.0263L1182.71 20.8474ZM1178.36 16.9105L1183.07 19.2368L1187.78 16.9105L1183.07 14.5842L1178.36 16.9105ZM1275.06 19.6842L1267.77 23.3526L1280.57 29.7947L1272.48 33.9105L1259.68 27.4684L1246.88 33.9105L1234.09 27.4684L1221.29 33.9105L1213.2 29.7947L1226 23.3526L1212.93 16.8211L1214.62 16.2842L1226 10.5579L1213.2 4.11579L1221.29 0L1234.09 6.44211L1246.97 0L1259.77 6.44211L1272.57 0L1280.66 4.11579L1267.86 10.5579L1280.66 17L1275.06 19.6842ZM1277.1 16.9105L1264.3 10.4684L1277.1 4.02632L1272.39 1.7L1259.59 8.14211C1255.33 5.99474 1251.06 3.84737 1246.79 1.7L1234 8.14211L1221.2 1.7L1216.49 4.02632L1229.29 10.4684L1216.49 16.9105L1229.29 23.3526L1216.49 29.7947L1221.2 32.1211L1234 25.6789L1246.79 32.1211L1259.59 25.6789L1272.39 32.1211L1277.1 29.7947L1264.3 23.3526L1277.1 16.9105ZM1246.97 25.6789L1251.68 23.3526L1246.97 21.0263L1242.26 23.3526L1246.97 25.6789ZM1253.64 24.0684L1246.88 27.4684L1238.8 23.3526L1246.88 19.2368L1254.97 23.3526L1253.64 24.0684ZM1259.68 19.3263L1264.39 17L1259.68 14.6737L1254.97 17L1259.68 19.3263ZM1266.44 17.6263L1259.68 21.0263L1251.59 16.9105L1259.68 12.7947L1267.77 16.9105L1266.44 17.6263ZM1247.24 6.62105L1254.97 10.5579L1246.88 14.6737L1238.8 10.5579L1246.88 6.44211L1247.24 6.62105ZM1251.59 10.4684L1246.88 8.14211L1242.17 10.4684L1246.88 12.7947L1251.59 10.4684ZM1234.17 14.5842L1229.46 16.9105L1234.17 19.2368L1238.88 16.9105L1234.17 14.5842ZM1227.42 16.2842L1234.17 12.8842L1242.26 17L1234.17 21.1158L1226.09 17L1227.42 16.2842Z" fill="#D7B56D"/>
<path d="M1413 8.14211L1408.29 10.4684L1421.09 16.9105L1408.29 23.3526L1413 25.6789L1425.8 19.2368L1433.89 23.3526L1421.09 29.7947L1425.8 32.1211L1438.6 25.6789L1451.39 32.1211L1456.1 29.7947L1443.31 23.3526L1451.39 19.2368L1464.19 25.6789L1468.9 23.3526L1456.1 16.9105L1468.9 10.4684L1464.19 8.14211L1451.39 14.5842L1443.31 10.4684L1456.1 4.02632L1451.39 1.7L1438.6 8.14211L1425.8 1.7L1421.09 4.02632L1433.89 10.4684L1425.8 14.5842L1413 8.14211ZM1349.09 1.7L1344.38 4.02632L1357.18 10.4684L1344.38 16.9105L1357.18 23.3526L1344.38 29.7947L1349.09 32.1211L1361.89 25.6789C1366.16 27.8263 1370.43 29.9737 1374.69 32.1211L1387.49 25.6789L1400.29 32.1211L1405 29.7947L1392.2 23.3526L1405 16.9105L1392.2 10.4684L1405 4.02632L1400.29 1.7L1387.4 8.14211L1374.6 1.7L1361.8 8.14211L1349.09 1.7ZM1342.34 3.4L1349.09 0L1361.89 6.44211L1374.69 0L1387.49 6.44211L1400.29 0L1408.38 4.11579L1395.58 10.5579L1408.38 17L1395.58 23.4421L1408.38 29.8842L1400.29 34L1387.49 27.5579L1374.69 34L1361.89 27.5579L1349.09 34L1341.01 29.8842L1353.81 23.4421L1340.74 16.9105L1342.43 16.3737L1353.81 10.6474L1341.01 4.20526L1342.34 3.4ZM1285.28 8.14211L1280.57 10.4684L1293.37 16.9105L1280.57 23.3526L1285.28 25.6789L1298.08 19.2368L1306.17 23.3526L1293.37 29.7947L1298.08 32.1211L1310.88 25.6789L1323.68 32.1211L1328.39 29.7947L1315.59 23.3526L1323.68 19.2368L1336.47 25.6789L1341.18 23.3526L1328.39 16.9105L1341.18 10.4684L1336.47 8.14211L1323.68 14.5842L1315.59 10.4684L1328.39 4.02632L1323.68 1.7L1310.88 8.14211L1298.08 1.7L1293.37 4.02632L1306.17 10.4684L1298.08 14.5842L1285.28 8.14211ZM1278.52 9.84211L1285.28 6.44211L1298.08 12.8842L1302.79 10.5579L1289.99 4.11579L1298.08 0L1310.88 6.44211L1323.68 0L1331.76 4.11579L1318.96 10.5579L1323.68 12.8842L1336.47 6.44211L1344.56 10.5579L1331.76 17L1344.56 23.4421L1336.47 27.5579L1323.68 21.1158L1318.96 23.4421L1331.76 29.8842L1323.68 34L1310.88 27.5579L1298.08 34L1289.99 29.8842L1302.79 23.4421L1298.08 21.1158L1285.28 27.5579L1277.19 23.4421L1289.99 17L1277.19 10.5579L1278.52 9.84211ZM1310.43 20.8474L1302.7 16.9105L1310.79 12.7947L1318.88 16.9105L1310.79 21.0263L1310.43 20.8474ZM1306.08 16.9105L1310.79 19.2368L1315.5 16.9105L1310.79 14.5842L1306.08 16.9105ZM1374.34 27.2895L1366.6 23.3526L1374.69 19.2368L1382.78 23.3526L1374.69 27.4684L1374.34 27.2895ZM1369.98 23.3526L1374.69 25.6789L1379.4 23.3526L1374.69 21.0263L1369.98 23.3526ZM1387.05 20.8474L1379.31 16.9105L1387.4 12.7947L1395.49 16.9105L1387.4 21.0263L1387.05 20.8474ZM1382.78 16.9105L1387.49 19.2368L1392.2 16.9105L1387.49 14.5842L1382.78 16.9105ZM1381.36 11.1842L1374.6 14.5842L1366.52 10.4684L1374.6 6.35263L1382.69 10.4684L1381.36 11.1842ZM1374.6 12.8842L1379.31 10.5579L1374.6 8.23158L1369.89 10.5579L1374.6 12.8842ZM1362.25 13.0632L1369.98 17L1361.89 21.1158L1353.81 17L1361.89 12.8842L1362.25 13.0632ZM1366.52 16.9105L1361.8 14.5842L1357.09 16.9105L1361.8 19.2368L1366.52 16.9105ZM1413 6.44211L1425.8 12.8842L1430.51 10.5579L1417.62 4.11579L1425.71 0L1438.51 6.44211L1451.31 0L1459.39 4.11579L1446.59 10.5579L1451.31 12.8842L1464.1 6.44211L1472.19 10.5579L1459.39 17L1472.19 23.4421L1464.1 27.5579L1451.31 21.1158L1446.59 23.4421L1459.39 29.8842L1451.31 34L1438.51 27.5579L1425.71 34L1417.62 29.8842L1430.42 23.4421L1425.71 21.1158L1412.91 27.5579L1404.82 23.4421L1417.62 17L1404.82 10.5579L1413 6.44211ZM1438.15 20.8474L1430.42 16.9105L1438.51 12.7947L1446.59 16.9105L1438.51 21.0263L1438.15 20.8474ZM1433.8 16.9105L1438.51 19.2368L1443.22 16.9105L1438.51 14.5842L1433.8 16.9105ZM1530.5 19.6842L1523.21 23.3526L1536.01 29.7947L1527.92 33.9105L1515.12 27.4684L1502.32 33.9105L1489.52 27.4684L1476.72 33.9105L1468.64 29.7947L1481.44 23.3526L1468.37 16.8211L1470.06 16.2842L1481.44 10.5579L1468.64 4.11579L1476.72 0L1489.52 6.44211L1502.32 0L1515.12 6.44211L1527.92 0L1536.01 4.11579L1523.21 10.5579L1536.01 17L1530.5 19.6842ZM1521.16 22.6368L1532.54 16.9105L1519.74 10.4684L1532.54 4.02632L1527.83 1.7L1515.03 8.14211C1510.77 5.99474 1506.5 3.84737 1502.23 1.7L1489.61 8.14211L1476.81 1.7L1472.1 4.02632L1484.9 10.4684L1472.1 16.9105L1484.9 23.3526L1472.1 29.7947L1476.81 32.1211L1489.61 25.6789L1502.41 32.1211L1515.21 25.6789L1528.01 32.1211L1532.72 29.7947L1519.92 23.3526L1521.16 22.6368ZM1502.32 25.6789L1507.03 23.3526L1502.32 21.0263L1497.61 23.3526L1502.32 25.6789ZM1509.08 24.0684L1502.32 27.4684L1494.23 23.3526L1502.32 19.2368L1510.41 23.3526L1509.08 24.0684ZM1515.12 19.3263L1519.83 17L1515.12 14.6737L1510.41 17L1515.12 19.3263ZM1521.88 17.6263L1515.12 21.0263L1507.03 16.9105L1515.12 12.7947L1523.21 16.9105L1521.88 17.6263ZM1502.68 6.62105L1510.41 10.5579L1502.32 14.6737L1494.23 10.5579L1502.32 6.44211L1502.68 6.62105ZM1507.03 10.4684L1502.32 8.14211L1497.61 10.4684L1502.32 12.7947L1507.03 10.4684ZM1489.61 14.5842L1484.9 16.9105L1489.61 19.2368L1494.32 16.9105L1489.61 14.5842ZM1482.86 16.2842L1489.61 12.8842L1497.7 17L1489.61 21.1158L1481.52 17L1482.86 16.2842ZM1540.63 8.14211L1535.92 10.4684L1548.72 16.9105L1535.92 23.3526L1540.63 25.6789L1553.43 19.2368L1561.52 23.3526L1548.72 29.7947L1553.43 32.1211L1566.23 25.6789L1579.02 32.1211L1583.74 29.7947L1570.94 23.3526L1579.02 19.2368L1591.82 25.6789L1596.53 23.3526L1583.74 16.9105L1596.53 10.4684L1591.82 8.14211L1579.02 14.5842L1570.94 10.4684L1583.74 4.02632L1579.02 1.7L1566.23 8.14211L1553.43 1.7L1548.72 4.02632L1561.52 10.4684L1553.43 14.5842L1540.63 8.14211ZM1533.96 9.84211L1540.72 6.44211L1553.52 12.8842L1558.23 10.5579L1545.43 4.11579L1553.52 0L1566.31 6.44211L1579.11 0L1587.2 4.11579L1574.4 10.5579L1579.11 12.8842L1591.91 6.44211L1600 10.5579L1587.2 17L1600 23.4421L1591.91 27.5579L1579.11 21.1158L1574.4 23.4421L1587.2 29.8842L1579.11 34L1566.31 27.5579L1553.52 34L1545.43 29.8842L1558.23 23.4421L1553.52 21.1158L1540.72 27.5579L1532.63 23.4421L1545.43 17L1532.63 10.5579L1533.96 9.84211ZM1565.87 20.8474L1558.14 16.9105L1566.23 12.7947L1574.31 16.9105L1566.23 21.0263L1565.87 20.8474ZM1561.52 16.9105L1566.23 19.2368L1570.94 16.9105L1566.23 14.5842L1561.52 16.9105Z" fill="#D7B56D"/>
<path d="M135.807 8.14211L131.097 10.4684L143.895 16.9105L131.097 23.3526L135.807 25.6789L148.606 19.2368L156.694 23.3526L143.895 29.7947L148.606 32.1211L161.404 25.6789L174.203 32.1211L178.913 29.7947L166.115 23.3526L174.203 19.2368L187.001 25.6789L191.712 23.3526L178.913 16.9105L191.712 10.4684L187.001 8.14211L174.203 14.5842L166.115 10.4684L178.913 4.02632L174.203 1.7L161.404 8.14211L148.606 1.7L143.895 4.02632L156.694 10.4684L148.606 14.5842L135.807 8.14211ZM71.992 1.7L67.2814 4.02632L80.08 10.4684L67.2814 16.9105L80.08 23.3526L67.2814 29.7947L71.992 32.1211L84.7906 25.6789C89.0568 27.8263 93.323 29.9737 97.5892 32.1211L110.388 25.6789L123.186 32.1211L127.897 29.7947L115.098 23.3526L127.897 16.9105L115.098 10.4684L127.897 4.02632L123.186 1.7L110.388 8.14211L97.5892 1.7L84.7017 8.14211L71.992 1.7ZM71.992 0L84.7906 6.44211L97.5003 0L110.299 6.44211L123.009 0L131.097 4.11579L118.298 10.5579L131.097 17L118.298 23.4421L131.097 29.8842L123.009 34L110.21 27.5579L97.4114 34L84.6128 27.5579L71.992 33.8211L63.904 29.7053L76.7026 23.2632L63.6374 16.7316L65.3261 16.1947L76.7026 10.4684L63.8151 4.11579L71.992 0ZM8.08799 8.14211L3.3774 10.4684L16.176 16.9105L3.3774 23.3526L8.08799 25.6789L20.8866 19.2368L28.9746 23.3526L16.176 29.7947L20.8866 32.1211L33.6852 25.6789L46.4837 32.1211L51.1943 29.7947L38.3957 23.3526L46.4837 19.2368L59.2823 25.6789L63.9929 23.3526L51.1943 16.9105L63.9929 10.4684L59.2823 8.14211L46.4837 14.5842L38.3957 10.4684L51.1943 4.02632L46.4837 1.7L33.5963 8.14211L20.8866 1.7L16.176 4.02632L28.9746 10.4684L20.8866 14.5842L8.08799 8.14211ZM1.33319 9.84211L8.08799 6.44211L20.8866 12.8842L25.5972 10.5579L12.7986 4.11579L20.8866 0L33.6852 6.44211L46.3948 0L54.4828 4.11579L41.7731 10.4684L46.4837 12.7947L59.2823 6.35263L67.3703 10.4684L54.5717 16.9105L67.3703 23.3526L59.2823 27.4684L46.4837 21.0263L41.7731 23.3526L54.5717 29.7947L46.4837 33.9105L33.6852 27.4684L20.8866 33.9105L12.7986 29.7947L25.5972 23.3526L20.8866 21.0263L8.08799 27.4684L0 23.3526L12.7986 16.9105L0 10.4684L1.33319 9.84211ZM33.3296 20.8474L25.5972 16.9105L33.6852 12.7947L41.7731 16.9105L33.6852 21.0263L33.3296 20.8474ZM28.9746 16.9105L33.6852 19.2368L38.3957 16.9105L33.6852 14.5842L28.9746 16.9105ZM97.1448 27.2895L89.4123 23.3526L97.5003 19.2368L105.588 23.3526L97.5003 27.4684L97.1448 27.2895ZM92.7897 23.3526L97.5003 25.6789L102.211 23.3526L97.5003 21.0263L92.7897 23.3526ZM109.943 20.8474L102.211 16.9105L110.299 12.7947L118.387 16.9105L110.299 21.0263L109.943 20.8474ZM105.588 16.9105L110.299 19.2368L115.009 16.9105L110.299 14.5842L105.588 16.9105ZM104.255 11.1842L97.5003 14.5842L89.4123 10.4684L97.5003 6.35263L105.588 10.4684L104.255 11.1842ZM97.5003 12.8842L102.211 10.5579L97.5003 8.23158L92.7897 10.5579L97.5003 12.8842ZM85.0572 13.0632L92.7897 17L84.7017 21.1158L76.6137 17L84.7017 12.8842L85.0572 13.0632ZM89.4123 16.9105L84.7017 14.5842L79.9911 16.9105L84.7017 19.2368L89.4123 16.9105ZM129.052 9.84211L135.807 6.44211L148.606 12.8842L153.316 10.5579L140.518 4.11579L148.606 0L161.404 6.44211L174.114 0L182.202 4.11579L169.403 10.5579L174.114 12.8842L186.913 6.44211L195.001 10.5579L182.202 16.9105L195.001 23.3526L186.913 27.4684L174.114 21.0263L169.403 23.3526L182.202 29.7947L174.114 33.9105L161.315 27.4684L148.517 33.9105L140.429 29.7947L153.227 23.3526L148.517 21.0263L135.718 27.4684L127.63 23.3526L140.429 16.9105L127.63 10.4684L129.052 9.84211ZM161.049 20.8474L153.316 16.9105L161.404 12.7947L169.492 16.9105L161.404 21.0263L161.049 20.8474ZM156.694 16.9105L161.404 19.2368L166.115 16.9105L161.404 14.5842L156.694 16.9105ZM253.394 19.6842L246.106 23.3526L258.905 29.7947L250.817 33.9105L238.018 27.4684L225.219 33.9105L212.421 27.4684L199.622 33.9105L191.534 29.7947L204.333 23.3526L191.268 16.8211L192.956 16.2842L204.333 10.5579L191.534 4.11579L199.622 0L212.421 6.44211L225.219 0L238.018 6.44211L250.728 0L258.816 4.11579L246.017 10.5579L258.816 17L253.394 19.6842ZM255.438 16.9105L242.64 10.4684L255.438 4.02632L250.728 1.7L237.929 8.14211C233.663 5.99474 229.397 3.84737 225.131 1.7L212.421 8.14211L199.622 1.7L194.912 4.02632L207.71 10.4684L194.912 16.9105L207.71 23.3526L194.912 29.7947L199.622 32.1211L212.421 25.6789L225.219 32.1211L238.018 25.6789L250.817 32.1211L255.527 29.7947L242.64 23.3526L255.438 16.9105ZM225.219 25.6789L229.93 23.3526L225.219 21.0263L220.509 23.3526L225.219 25.6789ZM231.974 24.0684L225.219 27.4684L217.131 23.3526L225.219 19.2368L233.307 23.3526L231.974 24.0684ZM238.018 19.3263L242.729 17L238.018 14.6737L233.307 17L238.018 19.3263ZM244.684 17.6263L237.929 21.0263L229.841 16.9105L237.929 12.7947L246.017 16.9105L244.684 17.6263ZM225.575 6.62105L233.307 10.5579L225.219 14.6737L217.131 10.5579L225.219 6.44211L225.575 6.62105ZM229.93 10.4684L225.219 8.14211L220.509 10.4684L225.219 12.7947L229.93 10.4684ZM212.421 14.5842L207.71 16.9105L212.421 19.2368L217.131 16.9105L212.421 14.5842ZM205.666 16.2842L212.421 12.8842L220.509 17L212.421 21.1158L204.333 17L205.666 16.2842ZM263.526 8.14211L258.816 10.4684L271.614 16.9105L258.816 23.3526L263.526 25.6789L276.325 19.2368L284.413 23.3526L271.614 29.7947L276.325 32.1211L289.123 25.6789L301.922 32.1211L306.633 29.7947L293.834 23.3526L301.922 19.2368L314.721 25.6789L319.431 23.3526L306.633 16.9105L319.431 10.4684L314.632 8.14211L301.833 14.5842L293.745 10.4684L306.544 4.02632L301.833 1.7L289.035 8.14211L276.236 1.7L271.525 4.02632L284.324 10.4684L276.236 14.5842L263.526 8.14211ZM263.526 6.44211L276.325 12.8842L281.035 10.5579L268.237 4.11579L276.325 0L289.123 6.44211L301.833 0L309.921 4.11579L297.123 10.5579L301.833 12.8842L314.632 6.44211L322.72 10.5579L309.921 17L322.72 23.4421L314.632 27.5579L301.833 21.1158L297.123 23.4421L309.921 29.8842L301.833 34L289.035 27.5579L276.236 34L268.148 29.8842L280.947 23.4421L276.236 21.1158L263.437 27.5579L255.349 23.4421L268.148 17L255.349 10.5579L263.526 6.44211ZM288.768 20.8474L281.035 16.9105L289.123 12.7947L297.211 16.9105L289.123 21.0263L288.768 20.8474ZM284.413 16.9105L289.123 19.2368L293.834 16.9105L289.123 14.5842L284.413 16.9105Z" fill="#D7B56D"/>
<path d="M391.245 8.14211L386.535 10.4684L399.333 16.9105L386.535 23.3526L391.245 25.6789L404.044 19.2368L412.132 23.3526L399.333 29.7947L404.044 32.1211L416.843 25.6789L429.641 32.1211L434.352 29.7947L421.553 23.3526L429.641 19.2368L442.44 25.6789L447.15 23.3526L434.352 16.9105L447.15 10.4684L442.44 8.14211L429.641 14.5842L421.553 10.4684L434.352 4.02632L429.641 1.7L416.843 8.14211L404.044 1.7L399.333 4.02632L412.132 10.4684L404.044 14.5842L391.245 8.14211ZM327.341 1.7L322.631 4.02632L335.429 10.4684L322.631 16.9105L335.429 23.3526L322.631 29.7947L327.341 32.1211L340.14 25.6789C344.406 27.8263 348.672 29.9737 352.939 32.1211L365.737 25.6789L378.536 32.1211L383.246 29.7947L370.448 23.3526L383.246 16.9105L370.448 10.4684L383.246 4.02632L378.536 1.7L365.737 8.14211L352.939 1.7L340.14 8.14211L327.341 1.7ZM320.675 3.4L327.43 0L340.229 6.44211L352.939 0L365.737 6.44211L378.447 0L386.535 4.11579L373.736 10.5579L386.535 17L373.736 23.4421L386.535 29.8842L378.447 34L365.648 27.5579L352.85 34L340.051 27.5579L327.253 34L319.165 29.8842L331.963 23.4421L318.898 16.9105L320.587 16.3737L331.963 10.6474L319.165 4.20526L320.675 3.4ZM352.583 27.2895L344.851 23.3526L352.939 19.2368L361.027 23.3526L352.939 27.4684L352.583 27.2895ZM348.228 23.3526L352.939 25.6789L357.649 23.3526L352.939 21.0263L348.228 23.3526ZM365.382 20.8474L357.649 16.9105L365.737 12.7947L373.825 16.9105L365.737 21.0263L365.382 20.8474ZM361.027 16.9105L365.737 19.2368L370.448 16.9105L365.737 14.5842L361.027 16.9105ZM359.693 11.1842L352.939 14.5842L344.851 10.4684L352.939 6.35263L361.027 10.4684L359.693 11.1842ZM352.939 12.8842L357.649 10.5579L352.939 8.23158L348.228 10.5579L352.939 12.8842ZM340.496 13.0632L348.228 17L340.14 21.1158L332.052 17L340.14 12.8842L340.496 13.0632ZM344.851 16.9105L340.14 14.5842L335.429 16.9105L340.14 19.2368L344.851 16.9105ZM384.491 9.84211L391.245 6.44211L404.044 12.8842L408.755 10.5579L395.956 4.11579L404.044 0L416.843 6.44211L429.552 0L437.64 4.11579L424.842 10.4684L429.552 12.7947L442.351 6.35263L450.439 10.4684L437.64 16.9105L450.439 23.3526L442.351 27.4684L429.552 21.0263L424.842 23.3526L437.64 29.7947L429.552 33.9105L416.754 27.4684L403.955 33.9105L395.867 29.7947L408.666 23.3526L403.955 21.0263L391.157 27.4684L383.069 23.3526L395.867 16.9105L383.069 10.4684L384.491 9.84211ZM416.398 20.8474L408.666 16.9105L416.754 12.7947L424.842 16.9105L416.754 21.0263L416.398 20.8474ZM412.132 16.9105L416.843 19.2368L421.553 16.9105L416.843 14.5842L412.132 16.9105ZM508.832 19.6842L501.544 23.3526L514.343 29.7947L506.255 33.9105L493.456 27.4684L480.658 33.9105L467.859 27.4684L455.061 33.9105L446.973 29.7947L459.771 23.3526L446.706 16.8211L448.395 16.2842L459.771 10.5579L446.973 4.11579L455.061 0L467.859 6.44211L480.658 0L493.456 6.44211L506.166 0L514.254 4.11579L501.455 10.5579L514.254 17L508.832 19.6842ZM499.411 22.6368L510.788 16.9105L497.989 10.4684L510.788 4.02632L506.077 1.7L493.279 8.14211C489.012 5.99474 484.746 3.84737 480.48 1.7L467.681 8.14211L455.061 1.7L450.35 4.02632L463.149 10.4684L450.35 16.9105L463.149 23.3526L450.35 29.7947L455.061 32.1211L467.859 25.6789L480.658 32.1211L493.456 25.6789L506.255 32.1211L510.966 29.7947L498.167 23.3526L499.411 22.6368ZM480.658 25.6789L485.368 23.3526L480.658 21.0263L475.947 23.3526L480.658 25.6789ZM487.413 24.0684L480.658 27.4684L472.57 23.3526L480.658 19.2368L488.746 23.3526L487.413 24.0684ZM493.456 19.3263L498.167 17L493.456 14.6737L488.746 17L493.456 19.3263ZM500.122 17.6263L493.367 21.0263L485.279 16.9105L493.367 12.7947L501.455 16.9105L500.122 17.6263ZM481.013 6.62105L488.746 10.5579L480.658 14.6737L472.57 10.5579L480.658 6.44211L481.013 6.62105ZM485.279 10.4684L480.569 8.14211L475.858 10.4684L480.569 12.7947L485.279 10.4684ZM467.859 14.5842L463.149 16.9105L467.859 19.2368L472.57 16.9105L467.859 14.5842ZM461.104 16.2842L467.859 12.8842L475.947 17L467.859 21.1158L459.771 17L461.104 16.2842Z" fill="#D7B56D"/>
</svg>
